<svg version="1.1" xmlns="http://www.w3.org/2000/svg" viewBox="0 0 3964.0275185561363 962.742483001738" width="7928.055037112273" height="1925.484966003476">
  <!-- svg-source:excalidraw -->
  
  <defs>
    <style class="style-fonts">
      @font-face {
        font-family: "Virgil";
        src: url("https://excalidraw.com/Virgil.woff2");
      }
      @font-face {
        font-family: "Cascadia";
        src: url("https://excalidraw.com/Cascadia.woff2");
      }
      @font-face {
        font-family: "Assistant";
        src: url("https://excalidraw.com/Assistant-Regular.woff2");
      }
    </style>
    
  </defs>
  <rect x="0" y="0" width="3964.0275185561363" height="962.742483001738" fill="#ffffff"></rect><g stroke-linecap="round" transform="translate(1231.3863919221749 533.814492793357) rotate(0 30.861480457982395 29.371517552988536)"><path d="M26.08 0.96 C32.22 -0.4, 41.86 1.33, 47.62 4.32 C53.37 7.31, 58.69 12.83, 60.61 18.91 C62.52 24.98, 61.42 34.67, 59.1 40.78 C56.79 46.88, 52.29 52.65, 46.71 55.54 C41.13 58.44, 32.12 59.32, 25.64 58.13 C19.16 56.95, 12.19 53.24, 7.84 48.44 C3.49 43.63, -0.4 35.61, -0.44 29.32 C-0.49 23.04, 2.47 15.53, 7.57 10.73 C12.68 5.93, 26.07 2.18, 30.19 0.5 C34.3 -1.17, 32.35 0.35, 32.27 0.68 M42.18 0.59 C48.35 2.75, 55.1 10.59, 58.02 16.21 C60.94 21.83, 60.88 28.51, 59.71 34.32 C58.54 40.12, 56.13 47.06, 51.02 51.03 C45.91 55.01, 35.99 58.05, 29.05 58.18 C22.1 58.31, 14.25 55.86, 9.33 51.81 C4.42 47.76, 0.32 39.95, -0.46 33.89 C-1.24 27.82, 1.12 20.92, 4.65 15.44 C8.17 9.95, 14.43 3.4, 20.67 0.99 C26.92 -1.43, 38.51 0.85, 42.1 0.93 C45.69 1.01, 42.26 0.79, 42.23 1.46" stroke="#1e1e1e" stroke-width="2" fill="none"></path></g><g stroke-linecap="round" transform="translate(1229.5827526161297 614.7049828826556) rotate(0 30.861480457982395 29.371517552988536)"><path d="M43.97 2.58 C49.93 4.93, 57.12 12.62, 59.9 18.29 C62.68 23.96, 62.44 30.54, 60.64 36.6 C58.84 42.65, 54.64 50.88, 49.1 54.61 C43.56 58.34, 34.17 59.64, 27.4 58.97 C20.63 58.3, 12.88 55.1, 8.47 50.57 C4.05 46.04, 1.45 38.26, 0.9 31.79 C0.35 25.32, 1.48 16.97, 5.18 11.74 C8.88 6.51, 15.37 0.85, 23.09 0.39 C30.8 -0.06, 45.75 6.49, 51.48 8.99 C57.21 11.49, 57.59 15.13, 57.46 15.38 M19.26 2.52 C24.97 -0.05, 33.44 -0.47, 39.95 1.59 C46.46 3.66, 54.92 9.47, 58.32 14.9 C61.72 20.33, 61.57 28.06, 60.35 34.16 C59.12 40.27, 55.82 47.49, 50.97 51.51 C46.12 55.53, 37.61 58.38, 31.27 58.29 C24.93 58.2, 18.28 54.65, 12.95 50.98 C7.61 47.3, 0.86 41.98, -0.74 36.25 C-2.33 30.52, 0.05 22.29, 3.38 16.58 C6.7 10.88, 16.28 4.32, 19.22 2.03 C22.16 -0.27, 20.89 2.52, 21.02 2.8" stroke="#1e1e1e" stroke-width="2" fill="none"></path></g><g stroke-linecap="round" transform="translate(1227.3442437540816 692.8009013989513) rotate(0 30.861480457982395 29.371517552988536)"><path d="M38.83 1.61 C44.87 2.91, 52.15 8.06, 55.82 13.32 C59.49 18.57, 61.31 27, 60.85 33.14 C60.39 39.28, 57.76 45.88, 53.06 50.15 C48.35 54.42, 39.45 58.33, 32.62 58.77 C25.79 59.21, 17.45 56.53, 12.08 52.81 C6.71 49.1, 1.76 42.4, 0.4 36.46 C-0.95 30.52, 0.99 22.72, 3.96 17.17 C6.94 11.61, 11.56 5.55, 18.25 3.15 C24.94 0.74, 39.36 2.42, 44.11 2.74 C48.85 3.05, 46.92 4.73, 46.7 5.03 M34.68 -0.29 C41.02 0.3, 49.81 6.72, 54.4 11.42 C58.99 16.12, 62.08 21.97, 62.22 27.9 C62.36 33.82, 59.73 42.03, 55.26 46.99 C50.79 51.94, 42.02 56.29, 35.39 57.64 C28.75 59, 20.75 57.93, 15.44 55.09 C10.13 52.26, 5.57 46.48, 3.51 40.61 C1.45 34.75, 0.96 26.12, 3.1 19.88 C5.23 13.64, 10.74 6.49, 16.32 3.18 C21.89 -0.14, 33.27 0.35, 36.55 -0.01 C39.82 -0.38, 36.19 0.61, 35.96 0.99" stroke="#1e1e1e" stroke-width="2" fill="none"></path></g><g stroke-linecap="round" transform="translate(1227.1969108990422 806.394532634223) rotate(0 30.861480457982395 29.371517552988564)"><path d="M26.19 0.57 C32.41 -0.83, 41.98 0.74, 47.54 3.95 C53.1 7.15, 57.48 13.67, 59.55 19.82 C61.61 25.97, 62.23 34.88, 59.93 40.84 C57.63 46.8, 51.63 52.53, 45.76 55.58 C39.89 58.62, 31.28 60.46, 24.71 59.11 C18.14 57.75, 10.31 52.56, 6.34 47.43 C2.37 42.31, 0.67 34.54, 0.88 28.34 C1.1 22.15, 3.02 14.98, 7.63 10.26 C12.24 5.54, 24.75 1.51, 28.53 0.03 C32.32 -1.45, 30.52 1, 30.34 1.36 M20.61 3.21 C26.06 0.61, 34.21 -0.45, 40.48 1.69 C46.74 3.83, 54.88 10.72, 58.19 16.05 C61.49 21.38, 61.46 27.7, 60.31 33.65 C59.17 39.61, 56.02 47.39, 51.32 51.78 C46.61 56.17, 39 60.21, 32.09 59.99 C25.19 59.76, 14.96 54.86, 9.9 50.44 C4.85 46.01, 2.86 39.26, 1.76 33.42 C0.66 27.58, 0.06 20.44, 3.31 15.39 C6.57 10.35, 18.41 5.11, 21.29 3.15 C24.17 1.2, 20.5 3.5, 20.59 3.66" stroke="#1e1e1e" stroke-width="2" fill="none"></path></g><g stroke-linecap="round"><g transform="translate(1254.6557716601153 767.8212908979974) rotate(0 3.2033014289181665 -0.1948595824712811)"><path d="M-0.15 0.15 C0.94 0.1, 5.11 -0.3, 6.21 -0.35 M0.42 -0.08 C1.65 -0.07, 5.94 0.23, 6.91 0.12" stroke="#1e1e1e" stroke-width="2" fill="none"></path></g></g><mask></mask><g stroke-linecap="round"><g transform="translate(1255.1066024334314 777.6631589337346) rotate(0 3.2033014289181665 -0.1948595824712811)"><path d="M-0.33 0.09 C0.81 0.12, 5.52 -0.06, 6.62 -0.11 M0.15 -0.17 C1.28 -0.21, 5.48 -0.49, 6.45 -0.59" stroke="#1e1e1e" stroke-width="2" fill="none"></path></g></g><mask></mask><g stroke-linecap="round"><g transform="translate(1254.7510302997096 786.9849980758088) rotate(0 3.2033014289181665 -0.1948595824712811)"><path d="M-0.26 0.11 C0.85 0.09, 5.32 -0.08, 6.49 -0.17 M0.25 -0.14 C1.33 -0.26, 5.18 -0.69, 6.25 -0.69" stroke="#1e1e1e" stroke-width="2" fill="none"></path></g></g><mask></mask><g stroke-linecap="round" transform="translate(429.73678762380547 627.0858895429593) rotate(0 76.66989300639429 79.95678287388927)"><path d="M32 0 C66.63 -2.01, 103.24 1.01, 121.34 0 M32 0 C61.34 -0.42, 91.17 0.33, 121.34 0 M121.34 0 C143.69 -1.26, 151.65 8.83, 153.34 32 M121.34 0 C144.1 -1.73, 154.75 11.07, 153.34 32 M153.34 32 C153.74 55.89, 154.84 79.49, 153.34 127.91 M153.34 32 C153.3 65.84, 154.72 101.15, 153.34 127.91 M153.34 127.91 C153.18 149.61, 141.92 159.83, 121.34 159.91 M153.34 127.91 C155.35 150.46, 142.21 161.16, 121.34 159.91 M121.34 159.91 C94.14 158.88, 69.79 160.92, 32 159.91 M121.34 159.91 C98.62 159.65, 76.23 160.06, 32 159.91 M32 159.91 C12.31 159.85, -1.9 148.69, 0 127.91 M32 159.91 C12.15 160.9, -2.14 150.84, 0 127.91 M0 127.91 C0.32 90.42, -0.33 53.2, 0 32 M0 127.91 C1.92 99.37, 1.21 70.05, 0 32 M0 32 C-1.66 8.93, 11.24 -0.98, 32 0 M0 32 C1.54 9.19, 12.95 -0.4, 32 0" stroke="#1e1e1e" stroke-width="2" fill="none"></path></g><g transform="translate(469.60670809602004 694.5426724168485) rotate(0 36.79997253417969 12.5)"><text x="36.79997253417969" y="0" font-family="Virgil, Segoe UI Emoji" font-size="20px" fill="#1e1e1e" text-anchor="middle" style="white-space: pre;" direction="ltr" dominant-baseline="text-before-edge">Conv2D</text></g><g stroke-linecap="round" transform="translate(10 567.5232984747458) rotate(0 136.31960225120915 131.36587034487158)"><path d="M32 0 C82.17 3.02, 134.32 2.72, 240.64 0 M32 0 C108.05 -0.19, 182.54 -0.31, 240.64 0 M240.64 0 C261.12 1.72, 270.98 9.78, 272.64 32 M240.64 0 C261.26 -1.5, 273.24 9.14, 272.64 32 M272.64 32 C273.01 85.16, 274.61 143.22, 272.64 230.73 M272.64 32 C272.65 90.82, 272.9 149.08, 272.64 230.73 M272.64 230.73 C272.27 254.05, 263.4 262.78, 240.64 262.73 M272.64 230.73 C272.5 252.28, 264.25 262.52, 240.64 262.73 M240.64 262.73 C157.4 264.83, 77.37 264.06, 32 262.73 M240.64 262.73 C188.71 262.13, 135.85 261.37, 32 262.73 M32 262.73 C11.05 261.39, 1.4 253.7, 0 230.73 M32 262.73 C10.91 261.45, 2.03 253.04, 0 230.73 M0 230.73 C-0.07 174.81, 2.55 118.03, 0 32 M0 230.73 C-0.86 167.69, -1.86 106.34, 0 32 M0 32 C0.73 9.58, 9.28 0.21, 32 0 M0 32 C0.95 8.66, 12.35 0.35, 32 0" stroke="#1e1e1e" stroke-width="2" fill="none"></path></g><g transform="translate(24.764380111722346 578.8249070323968) rotate(0 127.39859008789062 123.72627815986567)"><text x="0" y="0" font-family="Virgil, Segoe UI Emoji" font-size="24.745255631973134px" fill="#1e1e1e" text-anchor="start" style="white-space: pre;" direction="ltr" dominant-baseline="text-before-edge">010101000100010001</text><text x="0" y="30.931569539966418" font-family="Virgil, Segoe UI Emoji" font-size="24.745255631973134px" fill="#1e1e1e" text-anchor="start" style="white-space: pre;" direction="ltr" dominant-baseline="text-before-edge">010010000100010010</text><text x="0" y="61.863139079932836" font-family="Virgil, Segoe UI Emoji" font-size="24.745255631973134px" fill="#1e1e1e" text-anchor="start" style="white-space: pre;" direction="ltr" dominant-baseline="text-before-edge">10001001000000100</text><text x="0" y="92.79470861989925" font-family="Virgil, Segoe UI Emoji" font-size="24.745255631973134px" fill="#1e1e1e" text-anchor="start" style="white-space: pre;" direction="ltr" dominant-baseline="text-before-edge">1001111101010100011100</text><text x="0" y="123.72627815986567" font-family="Virgil, Segoe UI Emoji" font-size="24.745255631973134px" fill="#1e1e1e" text-anchor="start" style="white-space: pre;" direction="ltr" dominant-baseline="text-before-edge">100010001000001011</text><text x="0" y="154.65784769983208" font-family="Virgil, Segoe UI Emoji" font-size="24.745255631973134px" fill="#1e1e1e" text-anchor="start" style="white-space: pre;" direction="ltr" dominant-baseline="text-before-edge">01000100010000100</text><text x="0" y="185.5894172397985" font-family="Virgil, Segoe UI Emoji" font-size="24.745255631973134px" fill="#1e1e1e" text-anchor="start" style="white-space: pre;" direction="ltr" dominant-baseline="text-before-edge">10001000000100010</text><text x="0" y="216.52098677976494" font-family="Virgil, Segoe UI Emoji" font-size="24.745255631973134px" fill="#1e1e1e" text-anchor="start" style="white-space: pre;" direction="ltr" dominant-baseline="text-before-edge">10000100010000010</text></g><g stroke-linecap="round"><g transform="translate(289.96491878736003 697.525851534496) rotate(0 65.06451717518127 -1.071911410664086)"><path d="M0.57 -0.24 C22.18 -0.75, 108.22 -1.92, 129.7 -2.34 M-0.59 -1.4 C20.82 -1.79, 107.04 -0.84, 128.53 -0.9" stroke="#1e1e1e" stroke-width="2" fill="none"></path></g><g transform="translate(289.96491878736003 697.525851534496) rotate(0 65.06451717518127 -1.071911410664086)"><path d="M104.99 7.54 C111.7 4.15, 118.93 1.19, 128.53 -0.9 M104.99 7.54 C110.5 5.42, 116.63 2.46, 128.53 -0.9" stroke="#1e1e1e" stroke-width="2" fill="none"></path></g><g transform="translate(289.96491878736003 697.525851534496) rotate(0 65.06451717518127 -1.071911410664086)"><path d="M105.08 -9.56 C111.87 -7.75, 119.07 -5.51, 128.53 -0.9 M105.08 -9.56 C110.59 -7.42, 116.69 -6.11, 128.53 -0.9" stroke="#1e1e1e" stroke-width="2" fill="none"></path></g></g><mask></mask><g transform="translate(103.69039100167953 533.2961471562007) rotate(0 42.049964904785156 12.5)"><text x="0" y="0" font-family="Virgil, Segoe UI Emoji" font-size="20px" fill="#1e1e1e" text-anchor="start" style="white-space: pre;" direction="ltr" dominant-baseline="text-before-edge">48x48x1</text></g><g stroke-linecap="round"><g transform="translate(592.4318005315373 710.9970122598215) rotate(0 14.863935678566094 -0.5187576693928975)"><path d="M-0.21 -0.49 C4.66 -0.59, 24.56 -0.66, 29.62 -0.82 M0.68 0.45 C5.44 0.2, 24.24 -1.42, 29.13 -1.68" stroke="#1e1e1e" stroke-width="2" fill="none"></path></g><g transform="translate(592.4318005315373 710.9970122598215) rotate(0 14.863935678566094 -0.5187576693928975)"><path d="M15.55 4.39 C19.87 2.04, 25.78 0.53, 29.13 -1.68 M15.55 4.39 C18.5 2.95, 21.31 1.73, 29.13 -1.68" stroke="#1e1e1e" stroke-width="2" fill="none"></path></g><g transform="translate(592.4318005315373 710.9970122598215) rotate(0 14.863935678566094 -0.5187576693928975)"><path d="M14.83 -5.76 C19.39 -4.39, 25.57 -2.19, 29.13 -1.68 M14.83 -5.76 C17.94 -4.96, 20.91 -3.93, 29.13 -1.68" stroke="#1e1e1e" stroke-width="2" fill="none"></path></g></g><mask></mask><g stroke-linecap="round" transform="translate(636.7295254429862 665.9798540029827) rotate(0 49.372461818422096 42.580725047689896)"><path d="M21.29 0 C35.68 -0.6, 53.43 -0.3, 77.45 0 M21.29 0 C39.17 1.08, 58.25 0.42, 77.45 0 M77.45 0 C91.79 -0.06, 100.66 8.75, 98.74 21.29 M77.45 0 C93.08 -0.51, 97.22 5.45, 98.74 21.29 M98.74 21.29 C97.45 35.74, 99.14 48.08, 98.74 63.87 M98.74 21.29 C99.8 34.81, 98.56 46.82, 98.74 63.87 M98.74 63.87 C97.1 76.1, 91.36 83.89, 77.45 85.16 M98.74 63.87 C97.93 76.78, 91.48 86.04, 77.45 85.16 M77.45 85.16 C62.97 85.76, 49.07 84.49, 21.29 85.16 M77.45 85.16 C62.95 86.03, 50.91 85.19, 21.29 85.16 M21.29 85.16 C6.09 85, 1.76 76.43, 0 63.87 M21.29 85.16 C7.95 83.04, -1.5 75.77, 0 63.87 M0 63.87 C1.6 49.36, -0.8 34.27, 0 21.29 M0 63.87 C0.81 51.07, 0.78 37.05, 0 21.29 M0 21.29 C1.75 8.75, 7.04 1.97, 21.29 0 M0 21.29 C-0.46 8.2, 6.3 -1.05, 21.29 0" stroke="#1e1e1e" stroke-width="2" fill="none"></path></g><g transform="translate(645.83202113592 696.0605790506727) rotate(0 40.26996612548828 12.5)"><text x="40.26996612548828" y="0" font-family="Virgil, Segoe UI Emoji" font-size="20px" fill="#1e1e1e" text-anchor="middle" style="white-space: pre;" direction="ltr" dominant-baseline="text-before-edge">MaxPool</text></g><g stroke-linecap="round" transform="translate(780.070011639074 321.48109188115393) rotate(0 32.88446947189314 32.2939784019963)"><path d="M16.15 0 C25.71 -0.51, 30.75 1.99, 49.62 0 M16.15 0 C27.45 0.67, 37.71 0.85, 49.62 0 M49.62 0 C61.14 0.66, 64.08 6.55, 65.77 16.15 M49.62 0 C58.2 -2.02, 65.11 4.35, 65.77 16.15 M65.77 16.15 C65.2 24.2, 66.78 31.52, 65.77 48.44 M65.77 16.15 C65.73 28.31, 65.46 38.21, 65.77 48.44 M65.77 48.44 C65.29 60.68, 60.3 65.38, 49.62 64.59 M65.77 48.44 C65.13 59.76, 58.82 66.35, 49.62 64.59 M49.62 64.59 C40.26 66.48, 26.98 66.16, 16.15 64.59 M49.62 64.59 C36.29 63.67, 24 64.95, 16.15 64.59 M16.15 64.59 C6.83 65.22, -1.41 60.26, 0 48.44 M16.15 64.59 C6.44 64.77, 1.57 59.79, 0 48.44 M0 48.44 C-2.09 40.94, 0.23 33.05, 0 16.15 M0 48.44 C-0.39 37.92, 0.38 26.16, 0 16.15 M0 16.15 C0.71 3.63, 3.84 1.31, 16.15 0 M0 16.15 C1.93 5.17, 6.38 -0.32, 16.15 0" stroke="#1e1e1e" stroke-width="2" fill="none"></path></g><g transform="translate(805.8144817213188 341.2750702831502) rotate(0 7.1399993896484375 12.5)"><text x="7.1399993896484375" y="0" font-family="Virgil, Segoe UI Emoji" font-size="20px" fill="#1e1e1e" text-anchor="middle" style="white-space: pre;" direction="ltr" dominant-baseline="text-before-edge">U</text></g><g stroke-linecap="round"><g transform="translate(854.0578890169959 352.6387836553989) rotate(0 121.59945444959158 -2.3270372947467877)"><path d="M0.83 0.19 C41.28 -0.31, 202.06 -3.23, 242.28 -3.99 M-0.19 -0.76 C40.67 -1.52, 203.73 -5.4, 244.51 -5.76" stroke="#1e1e1e" stroke-width="2" fill="none"></path></g><g transform="translate(854.0578890169959 352.6387836553989) rotate(0 121.59945444959158 -2.3270372947467877)"><path d="M221.17 3.19 C227.72 -0.87, 234.68 -3.47, 244.51 -5.76 M221.17 3.19 C228.32 -0.07, 237.06 -3.08, 244.51 -5.76" stroke="#1e1e1e" stroke-width="2" fill="none"></path></g><g transform="translate(854.0578890169959 352.6387836553989) rotate(0 121.59945444959158 -2.3270372947467877)"><path d="M220.87 -13.9 C227.36 -13.45, 234.4 -11.54, 244.51 -5.76 M220.87 -13.9 C228.19 -11.66, 237.03 -9.16, 244.51 -5.76" stroke="#1e1e1e" stroke-width="2" fill="none"></path></g></g><mask></mask><g stroke-linecap="round" transform="translate(1106.1387446493388 320.81869599462783) rotate(0 24.373553903564584 24.5)"><path d="M25.43 -0.05 C30.4 -0.12, 37.01 3.27, 40.85 6.84 C44.7 10.41, 47.76 16.15, 48.51 21.36 C49.25 26.57, 48.18 33.72, 45.3 38.1 C42.43 42.48, 36.25 46.11, 31.25 47.65 C26.25 49.18, 20.08 49.28, 15.3 47.3 C10.53 45.33, 5.06 40.48, 2.6 35.81 C0.14 31.14, -0.57 24.38, 0.53 19.29 C1.62 14.2, 4.76 8.45, 9.18 5.29 C13.6 2.13, 23.84 1.03, 27.05 0.35 C30.25 -0.33, 28.42 0.81, 28.41 1.2 M27.97 0.07 C33.03 0.63, 40.04 4.77, 43.46 8.84 C46.88 12.9, 48.62 19.17, 48.5 24.47 C48.39 29.78, 45.96 36.55, 42.75 40.65 C39.54 44.75, 34.27 48.28, 29.23 49.08 C24.2 49.88, 17.12 48.12, 12.51 45.44 C7.91 42.76, 3.48 38, 1.62 33.02 C-0.24 28.04, -0.29 20.45, 1.35 15.58 C3 10.71, 6.85 6.29, 11.5 3.8 C16.15 1.31, 26.49 1.03, 29.24 0.64 C31.98 0.24, 28.27 1.07, 27.99 1.42" stroke="#1e1e1e" stroke-width="2" fill="none"></path></g><g transform="translate(1124.297597578538 332.9945798555574) rotate(0 5.9799957275390625 12.5)"><text x="5.9799957275390625" y="0" font-family="Virgil, Segoe UI Emoji" font-size="20px" fill="#1e1e1e" text-anchor="middle" style="white-space: pre;" direction="ltr" dominant-baseline="text-before-edge">X</text></g><g stroke-linecap="round" transform="translate(874.5006462781478 127.7406868836718) rotate(0 171.53438740427487 130.3315948897975)"><path d="M32 0 C139.08 2.3, 243.29 1.65, 311.07 0 M32 0 C133.63 -1.25, 235.85 -1.54, 311.07 0 M311.07 0 C333.25 -0.19, 344.75 9.9, 343.07 32 M311.07 0 C331.89 -1.15, 343.5 11.45, 343.07 32 M343.07 32 C340.81 90.9, 340.42 151.96, 343.07 228.66 M343.07 32 C342.87 97.42, 342.78 163.61, 343.07 228.66 M343.07 228.66 C344.2 250.62, 332.26 262.58, 311.07 260.66 M343.07 228.66 C341.8 251.5, 334.41 260.39, 311.07 260.66 M311.07 260.66 C235.24 261.34, 160.01 261.39, 32 260.66 M311.07 260.66 C219.19 259.41, 129 258.11, 32 260.66 M32 260.66 C8.75 261.41, -0.78 251.01, 0 228.66 M32 260.66 C12.09 262.4, 0.43 248.18, 0 228.66 M0 228.66 C-0.27 169.57, -1.62 109.31, 0 32 M0 228.66 C-2.13 180.6, -1.48 132.18, 0 32 M0 32 C1.57 9.04, 11.67 -1.4, 32 0 M0 32 C0.22 12.41, 12.21 0.36, 32 0" stroke="#1e1e1e" stroke-width="2" fill="none"></path></g><g transform="translate(945.2392227340256 408.04924219735204) rotate(0 99.72991180419922 12.5)"><text x="0" y="0" font-family="Virgil, Segoe UI Emoji" font-size="20px" fill="#1e1e1e" text-anchor="start" style="white-space: pre;" direction="ltr" dominant-baseline="text-before-edge">Spatial Transformer</text></g><g stroke-linecap="round" transform="translate(931.0505422754884 212.9273426191216) rotate(0 12.803058995392405 40.02265672274936)"><path d="M6.4 0 C10.62 0.97, 13.72 0.4, 19.2 0 M6.4 0 C11.53 -0.28, 16.01 0.69, 19.2 0 M19.2 0 C22.09 -1.61, 23.98 0.37, 25.61 6.4 M19.2 0 C23.94 0.63, 27.48 0.04, 25.61 6.4 M25.61 6.4 C24.6 29.99, 24.68 50.88, 25.61 73.64 M25.61 6.4 C25.29 22.15, 25.65 39.98, 25.61 73.64 M25.61 73.64 C27.46 78.44, 23.39 79.35, 19.2 80.05 M25.61 73.64 C24.6 78.87, 22.63 81.22, 19.2 80.05 M19.2 80.05 C13.37 79.94, 8.19 81.09, 6.4 80.05 M19.2 80.05 C16.33 80.36, 12.91 80.32, 6.4 80.05 M6.4 80.05 C2.15 80.37, -1.47 77.5, 0 73.64 M6.4 80.05 C0.69 80.96, 0.64 78.8, 0 73.64 M0 73.64 C0.51 55.29, -2.13 38.96, 0 6.4 M0 73.64 C-0.31 55.68, -0.52 36.49, 0 6.4 M0 6.4 C-1.25 1.7, 4.13 -1.1, 6.4 0 M0 6.4 C0.36 2.44, 3.08 1.38, 6.4 0" stroke="#1e1e1e" stroke-width="2" fill="none"></path></g><g stroke-linecap="round" transform="translate(990.1693490289724 211.32291280475428) rotate(0 13.177681952181388 40.02265672274936)"><path d="M6.59 0 C11.56 0.92, 14 1, 19.77 0 M6.59 0 C10 -0.26, 14.39 0.27, 19.77 0 M19.77 0 C24.26 1.86, 27.62 4.05, 26.36 6.59 M19.77 0 C23.34 -0.02, 25.96 2.61, 26.36 6.59 M26.36 6.59 C24.24 23.56, 24.25 39.85, 26.36 73.46 M26.36 6.59 C25.8 29.63, 25.61 51.22, 26.36 73.46 M26.36 73.46 C24.87 77.16, 24.45 81.89, 19.77 80.05 M26.36 73.46 C24.32 78.43, 23.35 81.77, 19.77 80.05 M19.77 80.05 C15.91 79.26, 11.95 79.75, 6.59 80.05 M19.77 80.05 C16.59 80.41, 12.75 80.64, 6.59 80.05 M6.59 80.05 C2.75 81.34, 0.65 78.3, 0 73.46 M6.59 80.05 C3.69 80.66, 0.83 78.99, 0 73.46 M0 73.46 C-0.06 51.15, -2.27 24.49, 0 6.59 M0 73.46 C0.24 49.1, -0.05 25.43, 0 6.59 M0 6.59 C-1.12 3.72, 2.64 -0.74, 6.59 0 M0 6.59 C2.25 0.53, 3.03 1.48, 6.59 0" stroke="#1e1e1e" stroke-width="2" fill="none"></path></g><g stroke-linecap="round" transform="translate(893.5808676462018 143.05389651114342) rotate(0 101.12431938712967 82.31159072835248)"><path d="M32 0 C72.15 0.53, 109.44 0.14, 170.25 0 M32 0 C81.15 1.22, 130.23 -0.24, 170.25 0 M170.25 0 C189.97 -1.24, 202.58 11.51, 202.25 32 M170.25 0 C193.34 -1.32, 201.5 10.14, 202.25 32 M202.25 32 C200.48 53.71, 200.72 77.2, 202.25 132.62 M202.25 32 C202.18 65.33, 200.79 100.26, 202.25 132.62 M202.25 132.62 C201.9 154.87, 189.76 165.6, 170.25 164.62 M202.25 132.62 C202.98 155.73, 192.77 163.12, 170.25 164.62 M170.25 164.62 C126.25 164.33, 86.72 161.51, 32 164.62 M170.25 164.62 C131.01 163.54, 93.19 162.5, 32 164.62 M32 164.62 C12.35 162.78, -0.8 154.79, 0 132.62 M32 164.62 C8.71 164.94, -1.38 153.62, 0 132.62 M0 132.62 C0.86 99.85, -0.64 64.1, 0 32 M0 132.62 C1 97.15, -0.53 62.17, 0 32 M0 32 C-0.1 10.29, 11.4 -0.14, 32 0 M0 32 C0.92 9.23, 11.77 -1.73, 32 0" stroke="#1e1e1e" stroke-width="2" fill="none"></path></g><g stroke-linecap="round"><g transform="translate(856.2884754162087 351.5828967618181) rotate(0 42.94917935123647 -25.75406490628687)"><path d="M-0.02 -0.24 C10.63 -2.25, 50.1 -4.81, 64.43 -13.15 C78.75 -21.5, 82.52 -44.09, 85.91 -50.32 M-1.49 -1.41 C9.04 -3.69, 49.51 -6.55, 63.95 -14.99 C78.39 -23.43, 81.74 -45.78, 85.15 -52.04" stroke="#1e1e1e" stroke-width="2" fill="none"></path></g><g transform="translate(856.2884754162087 351.5828967618181) rotate(0 42.94917935123647 -25.75406490628687)"><path d="M85.11 -30.07 C84.92 -36.08, 86.24 -45.06, 85.15 -52.04 M85.11 -30.07 C84.84 -38.89, 86.02 -48.41, 85.15 -52.04" stroke="#1e1e1e" stroke-width="2" fill="none"></path></g><g transform="translate(856.2884754162087 351.5828967618181) rotate(0 42.94917935123647 -25.75406490628687)"><path d="M71 -35.24 C75.58 -39.48, 81.71 -46.69, 85.15 -52.04 M71 -35.24 C76.31 -42.11, 83.12 -49.57, 85.15 -52.04" stroke="#1e1e1e" stroke-width="2" fill="none"></path></g></g><mask></mask><g transform="translate(1051.2078226120725 230.59907019544846) rotate(0 11.955917358398438 19.905769224648186)"><text x="0" y="0" font-family="Virgil, Segoe UI Emoji" font-size="31.849230759437095px" fill="#1e1e1e" text-anchor="start" style="white-space: pre;" direction="ltr" dominant-baseline="text-before-edge">Θ</text></g><g stroke-linecap="round" transform="translate(1040.905823429518 217.92508233164529) rotate(0 68.88481433106483 29.36767025855923)"><path d="M14.68 0 C48.15 1.2, 85.35 1, 123.09 0 M14.68 0 C48.17 -0.24, 82.83 -0.45, 123.09 0 M123.09 0 C131.68 -0.7, 138.32 4.81, 137.77 14.68 M123.09 0 C131.31 1.92, 138.16 2.81, 137.77 14.68 M137.77 14.68 C136.37 23.72, 136.52 28.49, 137.77 44.05 M137.77 14.68 C138.71 24.48, 137.83 34.94, 137.77 44.05 M137.77 44.05 C139.55 52.08, 134.56 57.14, 123.09 58.74 M137.77 44.05 C136.8 55.35, 133.36 59.45, 123.09 58.74 M123.09 58.74 C92.35 57.39, 63.43 57.82, 14.68 58.74 M123.09 58.74 C82.54 57.34, 39.75 57.17, 14.68 58.74 M14.68 58.74 C3.69 56.91, -1.48 53.62, 0 44.05 M14.68 58.74 C6.57 59.89, -0.04 53.05, 0 44.05 M0 44.05 C1.83 32.01, -1.4 20.19, 0 14.68 M0 44.05 C0.19 35.6, 0.06 26.19, 0 14.68 M0 14.68 C0.25 4.98, 4.11 0.53, 14.68 0 M0 14.68 C0.54 5.64, 4.58 -0.5, 14.68 0" stroke="#1e1e1e" stroke-width="2" fill="none"></path></g><g transform="translate(1111.154650342706 234.65493633410986) rotate(0 23.459983825683594 12.5)"><text x="0" y="0" font-family="Virgil, Segoe UI Emoji" font-size="20px" fill="#1e1e1e" text-anchor="start" style="white-space: pre;" direction="ltr" dominant-baseline="text-before-edge">T(G)</text></g><g stroke-linecap="round"><g transform="translate(1130.102658991499 282.48689192959085) rotate(0 -0.4401446351261029 14.871223439283767)"><path d="M0.08 0.1 C0.09 5.01, -0.35 24.97, -0.44 29.83 M-0.55 -0.32 C-0.53 4.38, -0.64 23.91, -0.64 28.91" stroke="#1e1e1e" stroke-width="2" fill="none"></path></g><g transform="translate(1130.102658991499 282.48689192959085) rotate(0 -0.4401446351261029 14.871223439283767)"><path d="M-5.68 14.91 C-4.46 18.4, -3.43 21.28, -0.64 28.91 M-5.68 14.91 C-4.47 18.25, -3.55 20.69, -0.64 28.91" stroke="#1e1e1e" stroke-width="2" fill="none"></path></g><g transform="translate(1130.102658991499 282.48689192959085) rotate(0 -0.4401446351261029 14.871223439283767)"><path d="M4.5 14.95 C3.62 18.44, 2.54 21.31, -0.64 28.91 M4.5 14.95 C3.49 18.3, 2.19 20.73, -0.64 28.91" stroke="#1e1e1e" stroke-width="2" fill="none"></path></g></g><mask></mask><g stroke-linecap="round"><g transform="translate(1161.3028955720854 344.44311546530946) rotate(0 44.10409793695584 -0.38985146379026503)"><path d="M-0.31 -0.6 C14.41 -0.5, 74.25 0.09, 89.17 0.2 M1.73 1.7 C16.3 1.52, 74.19 -0.82, 88.73 -1.41" stroke="#1e1e1e" stroke-width="2" fill="none"></path></g><g transform="translate(1161.3028955720854 344.44311546530946) rotate(0 44.10409793695584 -0.38985146379026503)"><path d="M65.6 8.07 C73.22 6.22, 84.45 2.77, 88.73 -1.41 M65.6 8.07 C74.92 4.7, 82.47 1.09, 88.73 -1.41" stroke="#1e1e1e" stroke-width="2" fill="none"></path></g><g transform="translate(1161.3028955720854 344.44311546530946) rotate(0 44.10409793695584 -0.38985146379026503)"><path d="M64.92 -9.02 C72.73 -4.52, 84.21 -1.63, 88.73 -1.41 M64.92 -9.02 C74.52 -6.06, 82.32 -3.34, 88.73 -1.41" stroke="#1e1e1e" stroke-width="2" fill="none"></path></g></g><mask></mask><g stroke-linecap="round" transform="translate(1264.9335851461071 313.1635156866668) rotate(0 32.88446947189311 32.2939784019963)"><path d="M16.15 0 C25.52 0.98, 35.42 0.9, 49.62 0 M16.15 0 C25.67 -0.62, 34.86 0.74, 49.62 0 M49.62 0 C58.46 -0.66, 65.7 4.47, 65.77 16.15 M49.62 0 C60.16 2.03, 64.63 3.54, 65.77 16.15 M65.77 16.15 C65.9 25.08, 66.13 34.62, 65.77 48.44 M65.77 16.15 C66 25.5, 64.65 35.34, 65.77 48.44 M65.77 48.44 C67.72 58.65, 59.6 63.79, 49.62 64.59 M65.77 48.44 C64.82 58.57, 61.86 64.13, 49.62 64.59 M49.62 64.59 C36.77 64.79, 25.62 62.92, 16.15 64.59 M49.62 64.59 C37.99 65.22, 26.29 65.13, 16.15 64.59 M16.15 64.59 C5.57 65.89, 1.28 58.64, 0 48.44 M16.15 64.59 C5.81 66.7, -1.31 60.93, 0 48.44 M0 48.44 C1.1 37.84, 1.31 29.66, 0 16.15 M0 48.44 C0.76 41.61, -0.58 31.9, 0 16.15 M0 16.15 C-0.9 6.04, 6.44 -0.8, 16.15 0 M0 16.15 C-1.28 4.3, 7.41 2.28, 16.15 0" stroke="#1e1e1e" stroke-width="2" fill="none"></path></g><g transform="translate(1292.648056449055 332.9574940886631) rotate(0 5.1699981689453125 12.5)"><text x="5.1699981689453125" y="0" font-family="Virgil, Segoe UI Emoji" font-size="20px" fill="#1e1e1e" text-anchor="middle" style="white-space: pre;" direction="ltr" dominant-baseline="text-before-edge">V</text></g><g transform="translate(914.2860734592311 157.68543836434011) rotate(0 78.97993469238281 12.5)"><text x="0" y="0" font-family="Virgil, Segoe UI Emoji" font-size="20px" fill="#1e1e1e" text-anchor="start" style="white-space: pre;" direction="ltr" dominant-baseline="text-before-edge">Localisation net</text></g><g stroke-linecap="round"><g transform="translate(964.6716013828484 251.82453191218553) rotate(0 9.980355036884703 -0.4750501868738226)"><path d="M0.49 0.18 C3.86 0.14, 16.76 -0.51, 20.05 -0.78 M0.08 -0.2 C3.39 -0.36, 16.35 -1.51, 19.66 -1.66" stroke="#1e1e1e" stroke-width="2" fill="none"></path></g><g transform="translate(964.6716013828484 251.82453191218553) rotate(0 9.980355036884703 -0.4750501868738226)"><path d="M10.53 2.4 C13.19 1.33, 15.66 0.35, 19.66 -1.66 M10.53 2.4 C12.61 1.48, 14.26 0.62, 19.66 -1.66" stroke="#1e1e1e" stroke-width="2" fill="none"></path></g><g transform="translate(964.6716013828484 251.82453191218553) rotate(0 9.980355036884703 -0.4750501868738226)"><path d="M10.06 -4.42 C12.82 -3.64, 15.41 -2.77, 19.66 -1.66 M10.06 -4.42 C12.23 -3.88, 13.99 -3.28, 19.66 -1.66" stroke="#1e1e1e" stroke-width="2" fill="none"></path></g></g><mask></mask><g stroke-linecap="round"><g transform="translate(1021.4538142879965 252.0233428854785) rotate(0 7.692318200446664 -0.36448426034773007)"><path d="M0.5 0.25 C2.95 0.13, 12.58 -0.6, 15.11 -0.7 M0.1 -0.09 C2.7 -0.13, 13.63 0.2, 16.2 0.02" stroke="#1e1e1e" stroke-width="2" fill="none"></path></g><g transform="translate(1021.4538142879965 252.0233428854785) rotate(0 7.692318200446664 -0.36448426034773007)"><path d="M9 2.74 C11.86 1.5, 14.39 0.91, 16.2 0.02 M9 2.74 C11.56 1.66, 14.34 0.6, 16.2 0.02" stroke="#1e1e1e" stroke-width="2" fill="none"></path></g><g transform="translate(1021.4538142879965 252.0233428854785) rotate(0 7.692318200446664 -0.36448426034773007)"><path d="M8.94 -2.53 C11.82 -1.81, 14.37 -0.43, 16.2 0.02 M8.94 -2.53 C11.53 -1.65, 14.33 -0.76, 16.2 0.02" stroke="#1e1e1e" stroke-width="2" fill="none"></path></g></g><mask></mask><g stroke-linecap="round" transform="translate(772.1383416380284 625.351958206504) rotate(0 76.66989300639429 79.95678287388927)"><path d="M32 0 C58.14 1.21, 83.6 -1.11, 121.34 0 M32 0 C66.01 1.39, 101.38 0.82, 121.34 0 M121.34 0 C141.84 0.94, 151.49 11.77, 153.34 32 M121.34 0 C141.03 -1.99, 153.35 8.62, 153.34 32 M153.34 32 C153.61 50.73, 151.59 71.61, 153.34 127.91 M153.34 32 C154.48 52.05, 154.91 73.98, 153.34 127.91 M153.34 127.91 C153.96 149.85, 143.21 159.75, 121.34 159.91 M153.34 127.91 C155.43 149.3, 144.77 161.99, 121.34 159.91 M121.34 159.91 C86.75 160.38, 55.99 159.31, 32 159.91 M121.34 159.91 C99.62 159.51, 79.66 161.35, 32 159.91 M32 159.91 C9.3 160.85, -0.86 148.16, 0 127.91 M32 159.91 C10.05 157.84, -1.7 148.45, 0 127.91 M0 127.91 C0.39 97.56, 0.15 68.56, 0 32 M0 127.91 C-0.51 98.87, 0.36 69.44, 0 32 M0 32 C0.43 11.62, 11.12 0.39, 32 0 M0 32 C1.35 11.65, 11.7 -2.29, 32 0" stroke="#1e1e1e" stroke-width="2" fill="none"></path></g><g transform="translate(812.008262110243 692.8087410803932) rotate(0 36.79997253417969 12.5)"><text x="36.79997253417969" y="0" font-family="Virgil, Segoe UI Emoji" font-size="20px" fill="#1e1e1e" text-anchor="middle" style="white-space: pre;" direction="ltr" dominant-baseline="text-before-edge">Conv2D</text></g><g stroke-linecap="round"><g transform="translate(743.6507610699357 710.3390243460351) rotate(0 10.790870484743493 0.21090674518023889)"><path d="M0.41 0.01 C4.04 -0.03, 18.16 -0.06, 21.61 -0.04 M-0.04 -0.46 C3.53 -0.47, 17.49 0.25, 21.2 0.43" stroke="#1e1e1e" stroke-width="2" fill="none"></path></g><g transform="translate(743.6507610699357 710.3390243460351) rotate(0 10.790870484743493 0.21090674518023889)"><path d="M10.88 3.62 C13.71 2.73, 16.08 1.36, 21.2 0.43 M10.88 3.62 C13.64 2.84, 16.21 2.04, 21.2 0.43" stroke="#1e1e1e" stroke-width="2" fill="none"></path></g><g transform="translate(743.6507610699357 710.3390243460351) rotate(0 10.790870484743493 0.21090674518023889)"><path d="M11.25 -3.76 C13.99 -2.62, 16.26 -1.97, 21.2 0.43 M11.25 -3.76 C13.91 -2.66, 16.39 -1.59, 21.2 0.43" stroke="#1e1e1e" stroke-width="2" fill="none"></path></g></g><mask></mask><g stroke-linecap="round" transform="translate(957.4017771041215 662.1047393827678) rotate(0 49.372461818422096 42.580725047689896)"><path d="M21.29 0 C37.69 -1.59, 57.55 -2.05, 77.45 0 M21.29 0 C34.65 -0.1, 49.02 -1.37, 77.45 0 M77.45 0 C91.55 1.19, 99.22 8.69, 98.74 21.29 M77.45 0 C92.35 -1.49, 97.28 6.28, 98.74 21.29 M98.74 21.29 C98.44 34.3, 100.39 44.78, 98.74 63.87 M98.74 21.29 C98.73 37.36, 99.47 55.8, 98.74 63.87 M98.74 63.87 C97.88 77.22, 90.75 84.32, 77.45 85.16 M98.74 63.87 C99.71 78.78, 90.5 82.89, 77.45 85.16 M77.45 85.16 C56.75 86.17, 33.36 83.18, 21.29 85.16 M77.45 85.16 C63.44 85.05, 50.38 84.74, 21.29 85.16 M21.29 85.16 C6.52 84.8, 1.21 78.52, 0 63.87 M21.29 85.16 C6.85 86.63, -0.83 75.91, 0 63.87 M0 63.87 C1.55 51.37, 1.45 40.81, 0 21.29 M0 63.87 C0.18 55.02, 1.14 45.23, 0 21.29 M0 21.29 C1.35 5.92, 7 -0.69, 21.29 0 M0 21.29 C-2.11 4.95, 8.15 0.73, 21.29 0" stroke="#1e1e1e" stroke-width="2" fill="none"></path></g><g transform="translate(966.5042727970554 692.1854644304576) rotate(0 40.26996612548828 12.5)"><text x="40.26996612548828" y="0" font-family="Virgil, Segoe UI Emoji" font-size="20px" fill="#1e1e1e" text-anchor="middle" style="white-space: pre;" direction="ltr" dominant-baseline="text-before-edge">MaxPool</text></g><g stroke-linecap="round"><g transform="translate(932.8939208720972 702.834521651861) rotate(0 11.37007706852205 0)"><path d="M-0.24 -0.01 C3.55 -0.05, 18.93 -0.16, 22.77 -0.16 M0.64 -0.48 C4.36 -0.46, 18.71 0.27, 22.36 0.46" stroke="#1e1e1e" stroke-width="2" fill="none"></path></g><g transform="translate(932.8939208720972 702.834521651861) rotate(0 11.37007706852205 0)"><path d="M11.49 3.81 C14.76 2.85, 17.88 1.89, 22.36 0.46 M11.49 3.81 C15.01 2.98, 18.1 1.99, 22.36 0.46" stroke="#1e1e1e" stroke-width="2" fill="none"></path></g><g transform="translate(932.8939208720972 702.834521651861) rotate(0 11.37007706852205 0)"><path d="M11.88 -3.96 C15.04 -2.57, 18.04 -1.18, 22.36 0.46 M11.88 -3.96 C15.25 -2.44, 18.22 -1.08, 22.36 0.46" stroke="#1e1e1e" stroke-width="2" fill="none"></path></g></g><mask></mask><g stroke-linecap="round"><g transform="translate(1068.2834598303286 702.8660002705446) rotate(0 11.436182167757579 0.19516743583847074)"><path d="M0.17 0.32 C4.09 0.37, 19.21 0.53, 23.06 0.58 M-0.4 0.02 C3.5 -0.13, 18.8 -0.23, 22.72 -0.29" stroke="#1e1e1e" stroke-width="2" fill="none"></path></g><g transform="translate(1068.2834598303286 702.8660002705446) rotate(0 11.436182167757579 0.19516743583847074)"><path d="M12.01 3.74 C14.65 3.05, 16.83 2.41, 22.72 -0.29 M12.01 3.74 C15.95 2.17, 19.44 0.98, 22.72 -0.29" stroke="#1e1e1e" stroke-width="2" fill="none"></path></g><g transform="translate(1068.2834598303286 702.8660002705446) rotate(0 11.436182167757579 0.19516743583847074)"><path d="M11.93 -4.08 C14.61 -3.09, 16.8 -2.04, 22.72 -0.29 M11.93 -4.08 C15.88 -2.97, 19.41 -1.49, 22.72 -0.29" stroke="#1e1e1e" stroke-width="2" fill="none"></path></g></g><mask></mask><g stroke-linecap="round" transform="translate(1111.0986078803096 572.5262924036365) rotate(0 19.935409212333923 133.80931230031416)"><path d="M9.97 0 C16.61 1.8, 21.84 -0.61, 29.9 0 M9.97 0 C17.54 0.29, 25.06 0.16, 29.9 0 M29.9 0 C38.17 1.93, 40.14 4.63, 39.87 9.97 M29.9 0 C35.93 1.04, 40.76 5.3, 39.87 9.97 M39.87 9.97 C39.81 64.32, 39.09 120.78, 39.87 257.65 M39.87 9.97 C39.51 106.57, 38.02 204.16, 39.87 257.65 M39.87 257.65 C39.66 265.25, 38.25 265.7, 29.9 267.62 M39.87 257.65 C40.18 262.36, 38.48 268.25, 29.9 267.62 M29.9 267.62 C23.33 266.27, 16.9 268.2, 9.97 267.62 M29.9 267.62 C25.25 268.04, 20.86 268.1, 9.97 267.62 M9.97 267.62 C2.83 269.04, 0.25 264.07, 0 257.65 M9.97 267.62 C3.17 266.29, 1.16 264.97, 0 257.65 M0 257.65 C0.09 184.01, 1.29 110.53, 0 9.97 M0 257.65 C-1.11 163.26, -0.97 67.33, 0 9.97 M0 9.97 C-1.87 2.09, 3.71 -1.01, 9.97 0 M0 9.97 C2.07 2.51, 2.53 -0.08, 9.97 0" stroke="#1e1e1e" stroke-width="2" fill="none"></path></g><g transform="translate(1124.984748637132 583.9453752051378) rotate(0 6.879997253417969 125)"><text x="0" y="0" font-family="Virgil, Segoe UI Emoji" font-size="20px" fill="#1e1e1e" text-anchor="start" style="white-space: pre;" direction="ltr" dominant-baseline="text-before-edge">1</text><text x="0" y="25" font-family="Virgil, Segoe UI Emoji" font-size="20px" fill="#1e1e1e" text-anchor="start" style="white-space: pre;" direction="ltr" dominant-baseline="text-before-edge">0</text><text x="0" y="50" font-family="Virgil, Segoe UI Emoji" font-size="20px" fill="#1e1e1e" text-anchor="start" style="white-space: pre;" direction="ltr" dominant-baseline="text-before-edge">1</text><text x="0" y="75" font-family="Virgil, Segoe UI Emoji" font-size="20px" fill="#1e1e1e" text-anchor="start" style="white-space: pre;" direction="ltr" dominant-baseline="text-before-edge">1</text><text x="0" y="100" font-family="Virgil, Segoe UI Emoji" font-size="20px" fill="#1e1e1e" text-anchor="start" style="white-space: pre;" direction="ltr" dominant-baseline="text-before-edge">1</text><text x="0" y="125" font-family="Virgil, Segoe UI Emoji" font-size="20px" fill="#1e1e1e" text-anchor="start" style="white-space: pre;" direction="ltr" dominant-baseline="text-before-edge">0</text><text x="0" y="150" font-family="Virgil, Segoe UI Emoji" font-size="20px" fill="#1e1e1e" text-anchor="start" style="white-space: pre;" direction="ltr" dominant-baseline="text-before-edge">.</text><text x="0" y="175" font-family="Virgil, Segoe UI Emoji" font-size="20px" fill="#1e1e1e" text-anchor="start" style="white-space: pre;" direction="ltr" dominant-baseline="text-before-edge">.</text><text x="0" y="200" font-family="Virgil, Segoe UI Emoji" font-size="20px" fill="#1e1e1e" text-anchor="start" style="white-space: pre;" direction="ltr" dominant-baseline="text-before-edge">0</text><text x="0" y="225" font-family="Virgil, Segoe UI Emoji" font-size="20px" fill="#1e1e1e" text-anchor="start" style="white-space: pre;" direction="ltr" dominant-baseline="text-before-edge">1</text></g><g stroke-linecap="round"><g transform="translate(1161.2936403633128 700.5207831312772) rotate(0 28.385409889456128 -0.18460625818477183)"><path d="M-0.53 -0.64 C9 -0.91, 47.46 -0.81, 57.16 -0.91 M1.4 1.63 C10.8 1.46, 47.09 0.68, 56.42 0.35" stroke="#1e1e1e" stroke-width="2" fill="none"></path></g><g transform="translate(1161.2936403633128 700.5207831312772) rotate(0 28.385409889456128 -0.18460625818477183)"><path d="M33.17 9.54 C39.03 7.53, 46.2 5.64, 56.42 0.35 M33.17 9.54 C39.46 8.29, 43.44 4.53, 56.42 0.35" stroke="#1e1e1e" stroke-width="2" fill="none"></path></g><g transform="translate(1161.2936403633128 700.5207831312772) rotate(0 28.385409889456128 -0.18460625818477183)"><path d="M32.7 -7.56 C38.81 -4.42, 46.11 -1.18, 56.42 0.35 M32.7 -7.56 C39.13 -4.88, 43.22 -4.73, 56.42 0.35" stroke="#1e1e1e" stroke-width="2" fill="none"></path></g></g><mask></mask><g stroke-linecap="round" transform="translate(1344.7275601784963 580.6005740747453) rotate(0 22.854443380120415 21.751052604780824)"><path d="M27.71 0.06 C32.38 0.64, 38.24 4.33, 41.26 8.08 C44.28 11.84, 46.09 17.82, 45.82 22.6 C45.55 27.37, 42.95 33.32, 39.64 36.74 C36.33 40.16, 30.75 42.5, 25.95 43.09 C21.14 43.68, 15 42.7, 10.81 40.28 C6.61 37.85, 2.28 32.98, 0.76 28.55 C-0.76 24.12, -0.24 18.03, 1.68 13.69 C3.61 9.35, 7.84 4.74, 12.31 2.53 C16.79 0.32, 25.72 0.7, 28.52 0.44 C31.32 0.17, 29.26 0.61, 29.11 0.93 M20.84 0.09 C25.62 -0.64, 32.18 1.66, 36.21 4.23 C40.24 6.8, 43.82 11.09, 45 15.51 C46.18 19.93, 45.26 26.54, 43.28 30.75 C41.3 34.95, 37.34 38.73, 33.12 40.73 C28.89 42.73, 22.78 43.71, 17.93 42.72 C13.07 41.74, 6.95 38.43, 4.01 34.83 C1.06 31.23, -0.03 25.87, 0.24 21.11 C0.51 16.35, 2.26 9.74, 5.62 6.27 C8.98 2.81, 18.05 1.37, 20.39 0.33 C22.73 -0.72, 19.71 -0.22, 19.66 0" stroke="#1e1e1e" stroke-width="2" fill="none"></path></g><g stroke-linecap="round" transform="translate(1343.3918766083484 640.5039584328956) rotate(0 22.854443380120415 21.751052604780824)"><path d="M24.88 -0.27 C29.56 -0.15, 35.49 2.81, 38.91 6.18 C42.34 9.55, 44.97 15.34, 45.44 19.94 C45.91 24.54, 44.45 29.96, 41.74 33.77 C39.03 37.58, 33.96 41.47, 29.2 42.8 C24.43 44.12, 17.64 43.64, 13.15 41.73 C8.66 39.83, 4.32 35.59, 2.26 31.37 C0.21 27.15, -0.37 21.01, 0.82 16.43 C2.01 11.84, 5.32 6.63, 9.41 3.85 C13.5 1.06, 22.56 0.32, 25.36 -0.26 C28.16 -0.85, 26.25 -0.06, 26.21 0.32 M26.18 0.73 C30.79 0.95, 36.52 3.36, 39.68 6.69 C42.84 10.03, 44.89 16.15, 45.16 20.74 C45.44 25.32, 44.08 30.55, 41.32 34.21 C38.56 37.88, 33.47 41.55, 28.61 42.75 C23.75 43.95, 16.6 43.32, 12.17 41.39 C7.75 39.45, 4.06 35.51, 2.07 31.13 C0.08 26.74, -1.13 19.62, 0.25 15.07 C1.63 10.51, 6.25 6.36, 10.34 3.78 C14.43 1.2, 22.34 0.22, 24.78 -0.42 C27.21 -1.06, 24.98 -0.42, 24.96 -0.06" stroke="#1e1e1e" stroke-width="2" fill="none"></path></g><g stroke-linecap="round" transform="translate(1341.7341507544888 698.3378251645718) rotate(0 22.854443380120415 21.751052604780824)"><path d="M18.1 0.52 C22.5 -0.58, 29.01 0.74, 33.32 2.87 C37.64 5, 42.08 9.02, 43.98 13.28 C45.89 17.55, 46.29 23.98, 44.75 28.47 C43.21 32.97, 38.9 37.78, 34.74 40.27 C30.58 42.77, 24.57 44.11, 19.79 43.46 C15.01 42.82, 9.39 39.92, 6.08 36.41 C2.77 32.89, 0.2 27.1, -0.06 22.37 C-0.32 17.64, 1.4 11.78, 4.5 8.03 C7.6 4.28, 15.99 1.18, 18.55 -0.11 C21.1 -1.4, 19.65 -0.19, 19.83 0.3 M22.71 -0.12 C27.16 -0.52, 32.98 2.26, 36.76 5.14 C40.55 8.01, 44.33 12.62, 45.42 17.13 C46.51 21.63, 45.77 27.98, 43.29 32.17 C40.82 36.36, 35.19 40.45, 30.57 42.27 C25.95 44.08, 20.24 44.69, 15.57 43.05 C10.9 41.42, 5.08 36.55, 2.54 32.46 C0 28.37, -0.43 23.12, 0.34 18.5 C1.12 13.88, 3.56 7.94, 7.17 4.75 C10.79 1.56, 19.56 0.18, 22.01 -0.64 C24.47 -1.45, 21.86 -0.56, 21.92 -0.15" stroke="#1e1e1e" stroke-width="2" fill="none"></path></g><g stroke-linecap="round" transform="translate(1341.625043532685 782.4594931753916) rotate(0 22.854443380120415 21.751052604780796)"><path d="M18.91 0.68 C23.43 -0.36, 30.16 0.48, 34.42 2.79 C38.69 5.11, 42.93 10.14, 44.52 14.59 C46.1 19.04, 45.67 25.12, 43.94 29.49 C42.2 33.86, 38.3 38.55, 34.12 40.83 C29.93 43.1, 23.66 44.07, 18.83 43.16 C14.01 42.24, 8.34 39.01, 5.15 35.34 C1.97 31.67, -0.25 25.84, -0.27 21.16 C-0.29 16.47, 1.71 10.76, 5.03 7.22 C8.35 3.67, 16.99 0.94, 19.64 -0.12 C22.29 -1.18, 20.86 0.38, 20.94 0.87 M26.77 0.68 C31.38 1.19, 37.54 4.03, 40.78 7.59 C44.01 11.15, 46.37 17.25, 46.18 22.03 C45.98 26.8, 42.89 32.6, 39.62 36.26 C36.36 39.92, 31.45 43.39, 26.56 43.99 C21.68 44.6, 14.54 42.41, 10.33 39.91 C6.11 37.4, 2.87 33.4, 1.28 28.97 C-0.3 24.54, -0.86 17.82, 0.82 13.34 C2.5 8.85, 7.03 4.31, 11.35 2.06 C15.66 -0.19, 24.08 0.08, 26.69 -0.18 C29.31 -0.43, 26.97 0, 27.04 0.52" stroke="#1e1e1e" stroke-width="2" fill="none"></path></g><g stroke-linecap="round"><g transform="translate(1361.9596797599054 753.8941114708906) rotate(0 2.3722021772851463 -0.1443030998051711)"><path d="M-0.24 0.09 C0.61 -0.02, 3.88 -0.33, 4.76 -0.4 M0.29 -0.17 C1.11 -0.25, 3.71 -0.04, 4.48 0" stroke="#1e1e1e" stroke-width="2" fill="none"></path></g></g><mask></mask><g stroke-linecap="round"><g transform="translate(1362.2935421096654 761.1824985618343) rotate(0 2.3722021772851463 -0.1443030998051711)"><path d="M0.01 -0.11 C0.89 -0.17, 4.25 -0.28, 5.02 -0.3 M-0.41 -0.47 C0.46 -0.48, 4.09 0.03, 4.88 0.15" stroke="#1e1e1e" stroke-width="2" fill="none"></path></g></g><mask></mask><g stroke-linecap="round"><g transform="translate(1362.0302234652875 768.0857786932326) rotate(0 2.3722021772851463 -0.1443030998051711)"><path d="M0.27 -0.01 C1.04 -0.03, 3.84 -0.11, 4.6 -0.2 M-0.02 -0.32 C0.69 -0.44, 3.47 -0.79, 4.24 -0.78" stroke="#1e1e1e" stroke-width="2" fill="none"></path></g></g><mask></mask><g stroke-linecap="round" transform="translate(1442.4101651280773 629.4422492569772) rotate(0 10.383336788518932 9.882039170408405)"><path d="M11.07 -0.24 C13.11 -0.32, 15.6 1.01, 17.19 2.47 C18.77 3.92, 20.29 6.38, 20.57 8.47 C20.86 10.55, 20.02 13.18, 18.92 14.98 C17.81 16.78, 16.07 18.56, 13.96 19.27 C11.85 19.98, 8.34 20.11, 6.27 19.25 C4.21 18.38, 2.57 15.9, 1.58 14.06 C0.59 12.23, -0.09 10.19, 0.31 8.23 C0.72 6.27, 2.15 3.75, 4.02 2.31 C5.88 0.88, 10.22 -0.04, 11.51 -0.38 C12.8 -0.72, 11.89 0.04, 11.78 0.29 M11.27 -0.3 C13.49 -0.23, 16.88 1.59, 18.47 3.2 C20.07 4.81, 20.87 7.17, 20.82 9.36 C20.77 11.55, 19.39 14.61, 18.17 16.34 C16.96 18.08, 15.54 19.37, 13.53 19.77 C11.52 20.17, 8.23 19.6, 6.11 18.73 C3.98 17.85, 1.79 16.38, 0.78 14.52 C-0.22 12.66, -0.6 9.69, 0.08 7.57 C0.75 5.45, 2.83 3.03, 4.84 1.8 C6.85 0.57, 11.02 0.45, 12.12 0.2 C13.22 -0.06, 11.55 0.15, 11.44 0.28" stroke="#1e1e1e" stroke-width="2" fill="none"></path></g><g stroke-linecap="round" transform="translate(1441.803331169312 656.657832862212) rotate(0 10.383336788518932 9.882039170408405)"><path d="M10.68 -0.06 C12.72 -0.07, 15.67 1.13, 17.29 2.55 C18.91 3.97, 20.03 6.34, 20.4 8.44 C20.77 10.54, 20.7 13.32, 19.51 15.17 C18.33 17.01, 15.42 18.94, 13.3 19.5 C11.18 20.06, 8.79 19.33, 6.79 18.55 C4.79 17.78, 2.36 16.62, 1.27 14.86 C0.18 13.1, -0.27 10.18, 0.27 7.97 C0.81 5.77, 2.59 2.97, 4.52 1.65 C6.45 0.34, 10.63 0.31, 11.86 0.1 C13.08 -0.1, 11.92 0.26, 11.86 0.42 M11.89 0.23 C14.05 0.36, 16.41 1.48, 17.78 3.06 C19.15 4.63, 19.81 7.53, 20.1 9.66 C20.39 11.79, 20.65 14.21, 19.53 15.83 C18.4 17.45, 15.63 18.77, 13.36 19.38 C11.09 19.98, 8.01 20.26, 5.9 19.45 C3.78 18.63, 1.55 16.48, 0.67 14.48 C-0.21 12.48, -0.11 9.54, 0.63 7.45 C1.36 5.37, 3.3 3.18, 5.07 1.95 C6.84 0.72, 10.22 0.36, 11.27 0.07 C12.31 -0.23, 11.42 -0.01, 11.36 0.16" stroke="#1e1e1e" stroke-width="2" fill="none"></path></g><g stroke-linecap="round" transform="translate(1441.0501854655477 682.9331836143399) rotate(0 10.383336788518932 9.882039170408405)"><path d="M9.02 0.04 C11.08 -0.34, 13.81 0.3, 15.75 1.46 C17.7 2.61, 20.01 4.9, 20.67 6.98 C21.33 9.05, 20.58 12.06, 19.72 13.93 C18.85 15.81, 17.4 17.22, 15.47 18.22 C13.54 19.21, 10.37 20.27, 8.15 19.91 C5.92 19.55, 3.41 17.87, 2.13 16.05 C0.85 14.23, 0.3 11.12, 0.48 8.98 C0.67 6.83, 1.72 4.68, 3.25 3.2 C4.77 1.73, 8.42 0.63, 9.63 0.13 C10.84 -0.37, 10.45 0.08, 10.51 0.2 M9.26 0.25 C11.13 -0.03, 13.52 1.11, 15.47 2.3 C17.42 3.48, 20.17 5.44, 20.95 7.35 C21.73 9.26, 21.18 11.76, 20.17 13.76 C19.17 15.75, 17 18.29, 14.91 19.31 C12.83 20.33, 9.76 20.46, 7.67 19.89 C5.57 19.32, 3.5 17.62, 2.33 15.88 C1.17 14.14, 0.6 11.57, 0.69 9.45 C0.77 7.32, 1.41 4.7, 2.84 3.13 C4.28 1.55, 8.28 0.46, 9.3 0 C10.32 -0.47, 8.94 0.26, 8.94 0.32" stroke="#1e1e1e" stroke-width="2" fill="none"></path></g><g stroke-linecap="round" transform="translate(1441.5827765310812 708.3868513221437) rotate(0 10.383336788518932 9.882039170408405)"><path d="M9.05 -0.14 C11.17 -0.56, 13.99 0.52, 15.87 1.64 C17.76 2.76, 19.72 4.6, 20.34 6.57 C20.97 8.53, 20.5 11.37, 19.64 13.4 C18.77 15.44, 17 17.71, 15.17 18.78 C13.35 19.84, 10.75 20.28, 8.68 19.81 C6.6 19.33, 4.11 17.68, 2.7 15.92 C1.28 14.16, 0.18 11.31, 0.19 9.24 C0.2 7.16, 1.16 5.07, 2.74 3.47 C4.32 1.87, 8.54 0.14, 9.69 -0.34 C10.85 -0.83, 9.78 0.36, 9.68 0.56 M9 0.56 C10.98 0.32, 14.23 1, 16.23 2.22 C18.22 3.45, 20.41 5.87, 21 7.92 C21.59 9.98, 20.7 12.63, 19.74 14.55 C18.78 16.47, 17.36 18.71, 15.24 19.47 C13.13 20.23, 9.41 19.79, 7.06 19.1 C4.72 18.42, 2.28 17.15, 1.16 15.36 C0.04 13.57, -0.01 10.51, 0.35 8.36 C0.71 6.21, 1.76 3.78, 3.32 2.45 C4.88 1.13, 8.65 0.84, 9.71 0.42 C10.77 -0.01, 9.68 -0.11, 9.69 -0.1" stroke="#1e1e1e" stroke-width="2" fill="none"></path></g><g stroke-linecap="round" transform="translate(1440.9759425723157 735.6024349273782) rotate(0 10.383336788518932 9.882039170408405)"><path d="M11.06 0.24 C13.15 0.24, 16.07 1.14, 17.6 2.54 C19.13 3.95, 20.04 6.49, 20.25 8.65 C20.46 10.81, 19.95 13.69, 18.86 15.51 C17.77 17.33, 15.73 19.01, 13.7 19.56 C11.68 20.11, 8.78 19.75, 6.72 18.81 C4.65 17.87, 2.36 15.75, 1.32 13.91 C0.28 12.06, -0.08 9.79, 0.45 7.74 C0.98 5.69, 2.75 2.82, 4.51 1.6 C6.26 0.37, 9.9 0.64, 10.99 0.38 C12.09 0.12, 11.1 -0.12, 11.09 0.05 M10.46 0.42 C12.76 0.35, 16.11 1.61, 17.8 3.02 C19.49 4.42, 20.27 6.73, 20.6 8.83 C20.93 10.93, 21.01 13.93, 19.77 15.61 C18.52 17.3, 15.44 18.36, 13.13 18.92 C10.82 19.47, 7.85 19.75, 5.93 18.93 C4.01 18.11, 2.51 15.91, 1.6 14.01 C0.68 12.11, 0.04 9.45, 0.46 7.55 C0.87 5.64, 2.36 3.88, 4.07 2.57 C5.79 1.25, 9.65 0.16, 10.76 -0.33 C11.88 -0.82, 10.72 -0.7, 10.78 -0.39" stroke="#1e1e1e" stroke-width="2" fill="none"></path></g><g stroke-linecap="round" transform="translate(1440.2227968685515 761.8777856795061) rotate(0 10.383336788518932 9.882039170408405)"><path d="M9.18 -0.03 C11.16 -0.45, 13.72 0.32, 15.53 1.52 C17.35 2.72, 19.27 5.1, 20.06 7.16 C20.84 9.23, 21.01 12.01, 20.26 13.9 C19.51 15.79, 17.55 17.62, 15.56 18.48 C13.57 19.34, 10.52 19.48, 8.31 19.07 C6.11 18.65, 3.65 17.64, 2.33 15.97 C1 14.3, 0.35 11.12, 0.38 9.05 C0.42 6.98, 1.05 5.08, 2.53 3.55 C4.01 2.01, 8.01 0.32, 9.26 -0.17 C10.51 -0.66, 9.95 0.46, 10.02 0.6 M12.77 0.72 C14.89 0.96, 16.88 2.37, 18.3 4 C19.72 5.63, 21.36 8.52, 21.27 10.5 C21.17 12.49, 19.36 14.43, 17.73 15.92 C16.1 17.41, 13.52 19.13, 11.48 19.45 C9.44 19.76, 7.26 18.9, 5.5 17.8 C3.73 16.7, 1.66 14.66, 0.88 12.84 C0.11 11.01, 0.08 8.85, 0.83 6.88 C1.57 4.9, 3.44 2.2, 5.36 0.99 C7.29 -0.23, 11.16 -0.43, 12.38 -0.43 C13.61 -0.44, 12.8 0.64, 12.7 0.93" stroke="#1e1e1e" stroke-width="2" fill="none"></path></g><g transform="translate(1306.526519580479 677.0131223909357) rotate(0 12.17999267578125 12.5)"><text x="0" y="0" font-family="Virgil, Segoe UI Emoji" font-size="20px" fill="#1e1e1e" text-anchor="start" style="white-space: pre;" direction="ltr" dominant-baseline="text-before-edge">FC</text></g><g transform="translate(1399.9838072850744 679.9743767959271) rotate(0 12.17999267578125 12.5)"><text x="0" y="0" font-family="Virgil, Segoe UI Emoji" font-size="20px" fill="#1e1e1e" text-anchor="start" style="white-space: pre;" direction="ltr" dominant-baseline="text-before-edge">FC</text></g><g stroke-linecap="round" transform="translate(1531.8899739920253 623.879523953023) rotate(0 110.90907528727496 77.63990857008403)"><path d="M32 0 C82.91 -2.1, 136.39 -2.31, 189.82 0 M32 0 C92.95 1.15, 153.01 0.53, 189.82 0 M189.82 0 C209.93 -1.94, 222.46 9.09, 221.82 32 M189.82 0 C212.9 1.31, 222.22 8.58, 221.82 32 M221.82 32 C221.38 65.91, 221.97 98.01, 221.82 123.28 M221.82 32 C221.69 51.29, 222.87 69.9, 221.82 123.28 M221.82 123.28 C222.46 145.56, 212.9 156.32, 189.82 155.28 M221.82 123.28 C223.65 144.84, 210.99 153.15, 189.82 155.28 M189.82 155.28 C135.08 157.72, 84.94 157.2, 32 155.28 M189.82 155.28 C140.42 156.83, 90.32 157.31, 32 155.28 M32 155.28 C10.2 155.64, -1.84 143.37, 0 123.28 M32 155.28 C9.2 155.6, 1.75 146.44, 0 123.28 M0 123.28 C0.8 91.32, -2.41 60.23, 0 32 M0 123.28 C-0.1 100.69, -0.33 79.15, 0 32 M0 32 C-1.77 10.93, 9.54 -0.4, 32 0 M0 32 C0.14 11.24, 11.43 -0.27, 32 0" stroke="#1e1e1e" stroke-width="2" fill="none"></path></g><g transform="translate(1589.1190947504915 689.0194325231068) rotate(0 53.679954528808594 12.5)"><text x="53.679954528808594" y="0" font-family="Virgil, Segoe UI Emoji" font-size="20px" fill="#1e1e1e" text-anchor="middle" style="white-space: pre;" direction="ltr" dominant-baseline="text-before-edge">Affine Grid</text></g><g stroke-linecap="round"><g transform="translate(1475.293117367094 703.0216382935879) rotate(0 22.08279216602898 0.11187471800511162)"><path d="M0.09 -0.5 C7.52 -0.46, 36.73 0.47, 44.02 0.68 M-0.52 0.43 C6.87 0.29, 36.21 0.03, 43.51 -0.06" stroke="#1e1e1e" stroke-width="2" fill="none"></path></g><g transform="translate(1475.293117367094 703.0216382935879) rotate(0 22.08279216602898 0.11187471800511162)"><path d="M22.84 7.71 C26.09 5.86, 32 3.97, 43.51 -0.06 M22.84 7.71 C31.14 4.62, 38.87 1.35, 43.51 -0.06" stroke="#1e1e1e" stroke-width="2" fill="none"></path></g><g transform="translate(1475.293117367094 703.0216382935879) rotate(0 22.08279216602898 0.11187471800511162)"><path d="M22.69 -7.4 C26.02 -6.19, 31.97 -5.02, 43.51 -0.06 M22.69 -7.4 C31.05 -4.59, 38.84 -1.97, 43.51 -0.06" stroke="#1e1e1e" stroke-width="2" fill="none"></path></g></g><mask></mask><g transform="translate(1623.8610505152444 791.29441211413) rotate(0 19.54998779296875 12.5)"><text x="0" y="0" font-family="Virgil, Segoe UI Emoji" font-size="20px" fill="#1e1e1e" text-anchor="start" style="white-space: pre;" direction="ltr" dominant-baseline="text-before-edge">3x2</text></g><g stroke-linecap="round" transform="translate(344.59632750052765 10) rotate(0 742.893954735806 471.371241500869)"><path d="M32 0 C351.9 5.19, 672.31 4.94, 1453.79 0 M32 0 C389.7 2.18, 746.6 2.35, 1453.79 0 M1453.79 0 C1474.67 -0.05, 1484.05 11.52, 1485.79 32 M1453.79 0 C1475.69 0.97, 1486.45 12.76, 1485.79 32 M1485.79 32 C1483.95 345.5, 1483.93 658.96, 1485.79 910.74 M1485.79 32 C1487.46 209.33, 1487.28 387.24, 1485.79 910.74 M1485.79 910.74 C1485.48 933.37, 1473.48 940.88, 1453.79 942.74 M1485.79 910.74 C1486.23 934.09, 1475.84 940.53, 1453.79 942.74 M1453.79 942.74 C909.68 937.1, 364.97 937.53, 32 942.74 M1453.79 942.74 C1044.1 944.61, 634.89 945.03, 32 942.74 M32 942.74 C9.29 941.95, -0.8 933.32, 0 910.74 M32 942.74 C10.38 942.54, -0.64 929.9, 0 910.74 M0 910.74 C-2.46 706.33, -2.51 503.35, 0 32 M0 910.74 C-0.21 725.63, -0.81 539.93, 0 32 M0 32 C0.66 8.91, 11.8 0.99, 32 0 M0 32 C-1.3 9.77, 9.74 0.56, 32 0" stroke="#1e1e1e" stroke-width="2" fill="none"></path></g><g stroke-linecap="round"><g transform="translate(1773.330736503256 701.9036683959357) rotate(0 101.7847489868841 0.12558273531632835)"><path d="M0.94 -0.58 C34.93 -0.91, 169.9 -0.92, 203.72 -0.82 M-0.03 1.73 C33.84 2.03, 168.98 0.24, 202.85 0.15" stroke="#1e1e1e" stroke-width="2" fill="none"></path></g><g transform="translate(1773.330736503256 701.9036683959357) rotate(0 101.7847489868841 0.12558273531632835)"><path d="M179.43 8.9 C184.95 6.51, 190.7 4.25, 202.85 0.15 M179.43 8.9 C186.22 6.39, 193.06 4.5, 202.85 0.15" stroke="#1e1e1e" stroke-width="2" fill="none"></path></g><g transform="translate(1773.330736503256 701.9036683959357) rotate(0 101.7847489868841 0.12558273531632835)"><path d="M179.29 -8.2 C185.01 -5.79, 190.8 -3.26, 202.85 0.15 M179.29 -8.2 C186.23 -5.9, 193.11 -2.98, 202.85 0.15" stroke="#1e1e1e" stroke-width="2" fill="none"></path></g></g><mask></mask><g stroke-linecap="round" transform="translate(1996.201842673063 565.6341841041965) rotate(0 135.7403892103015 142.0871117421102)"><path d="M32 0 C76.18 0.29, 118.82 0.83, 239.48 0 M32 0 C114.03 -0.79, 195.93 -0.2, 239.48 0 M239.48 0 C262.28 0.96, 273.25 12.62, 271.48 32 M239.48 0 C259.37 -2.24, 270.21 12.37, 271.48 32 M271.48 32 C270.33 101.42, 272.66 167.41, 271.48 252.17 M271.48 32 C271.19 96.21, 272.43 160.46, 271.48 252.17 M271.48 252.17 C269.9 274.16, 260.75 285.5, 239.48 284.17 M271.48 252.17 C269.48 275.52, 263.08 285.38, 239.48 284.17 M239.48 284.17 C169.88 284.55, 99.81 284.56, 32 284.17 M239.48 284.17 C193.06 284.72, 148.7 284.29, 32 284.17 M32 284.17 C8.96 284.28, -1.5 275.36, 0 252.17 M32 284.17 C8.86 282.9, -0.11 274.71, 0 252.17 M0 252.17 C1.34 170.23, 2.27 89.34, 0 32 M0 252.17 C-0.05 202.61, 0.33 151.59, 0 32 M0 32 C-0.06 8.95, 10.83 1.91, 32 0 M0 32 C-1.32 9.7, 11 0.45, 32 0" stroke="#1e1e1e" stroke-width="2" fill="none"></path></g><g transform="translate(2095.1422593491848 695.2212958463067) rotate(0 36.79997253417969 12.5)"><text x="36.79997253417969" y="0" font-family="Virgil, Segoe UI Emoji" font-size="20px" fill="#1e1e1e" text-anchor="middle" style="white-space: pre;" direction="ltr" dominant-baseline="text-before-edge">Conv2D</text></g><g stroke-linecap="round"><g transform="translate(2283.443833966003 703.8624871216873) rotate(0 57.72071822711564 -0.43779351114852716)"><path d="M0.74 0.79 C19.79 0.9, 95.16 -0.39, 114.46 -0.49 M-0.34 0.17 C19.08 0, 97.21 -2.11, 116.66 -2.4" stroke="#1e1e1e" stroke-width="2" fill="none"></path></g><g transform="translate(2283.443833966003 703.8624871216873) rotate(0 57.72071822711564 -0.43779351114852716)"><path d="M93.36 6.65 C102 2.07, 108.55 2.74, 116.66 -2.4 M93.36 6.65 C103.3 2.53, 111.53 0.17, 116.66 -2.4" stroke="#1e1e1e" stroke-width="2" fill="none"></path></g><g transform="translate(2283.443833966003 703.8624871216873) rotate(0 57.72071822711564 -0.43779351114852716)"><path d="M92.99 -10.45 C101.58 -9.73, 108.25 -3.75, 116.66 -2.4 M92.99 -10.45 C103.25 -7.91, 111.62 -3.6, 116.66 -2.4" stroke="#1e1e1e" stroke-width="2" fill="none"></path></g></g><mask></mask><g stroke-linecap="round" transform="translate(2416.441572064704 613.1567973874688) rotate(0 86.22261534128552 85.80302028773752)"><path d="M32 0 C53.7 -1.08, 77.86 -1.11, 140.45 0 M32 0 C66.48 -0.76, 101.05 0.28, 140.45 0 M140.45 0 C161.04 -1.5, 172.4 11.94, 172.45 32 M140.45 0 C161.34 1.74, 170.83 12.18, 172.45 32 M172.45 32 C174.51 71.5, 172.63 107.9, 172.45 139.61 M172.45 32 C173.39 62.62, 171.77 94.81, 172.45 139.61 M172.45 139.61 C170.51 162.86, 163.66 171.28, 140.45 171.61 M172.45 139.61 C173.31 161.9, 160.16 172.65, 140.45 171.61 M140.45 171.61 C103.12 170.81, 66.92 170.95, 32 171.61 M140.45 171.61 C108.19 171.56, 75.87 172.05, 32 171.61 M32 171.61 C12.36 172.86, 0.09 160.11, 0 139.61 M32 171.61 C11.71 172.54, -1.35 159.67, 0 139.61 M0 139.61 C-0.44 99.28, -1.1 55.78, 0 32 M0 139.61 C1.51 97.65, 1.63 55.97, 0 32 M0 32 C-1.67 12.08, 10.78 -1.47, 32 0 M0 32 C0.02 8.38, 11.45 -0.45, 32 0" stroke="#1e1e1e" stroke-width="2" fill="none"></path></g><g transform="translate(2465.8642148718095 686.4598176752063) rotate(0 36.79997253417969 12.5)"><text x="36.79997253417969" y="0" font-family="Virgil, Segoe UI Emoji" font-size="20px" fill="#1e1e1e" text-anchor="middle" style="white-space: pre;" direction="ltr" dominant-baseline="text-before-edge">Conv2D</text></g><g stroke-linecap="round" transform="translate(2653.2821389785076 649.0863605819904) rotate(0 50.968294517704635 47.147478632749596)"><path d="M23.57 0 C34.44 0.82, 47.14 0.77, 78.36 0 M23.57 0 C41.59 -1.13, 57.98 -0.17, 78.36 0 M78.36 0 C93.62 -1.02, 102.83 7.43, 101.94 23.57 M78.36 0 C93.81 -1.1, 99.86 10.14, 101.94 23.57 M101.94 23.57 C101.76 35.52, 102.54 51.9, 101.94 70.72 M101.94 23.57 C102.57 39.3, 101.7 53.15, 101.94 70.72 M101.94 70.72 C101.16 87.73, 94.89 94.27, 78.36 94.29 M101.94 70.72 C103.46 88.49, 95.32 96.12, 78.36 94.29 M78.36 94.29 C59.49 96.09, 39.72 96.37, 23.57 94.29 M78.36 94.29 C61.18 94.16, 42.29 93.73, 23.57 94.29 M23.57 94.29 C7.73 95.94, 1.18 87.95, 0 70.72 M23.57 94.29 C6.53 93.84, -0.87 84.41, 0 70.72 M0 70.72 C-1.36 59.53, -0.17 45.77, 0 23.57 M0 70.72 C-1.2 57.74, -0.31 44.51, 0 23.57 M0 23.57 C1.33 6.04, 9.47 0.87, 23.57 0 M0 23.57 C-0.45 6.45, 9.7 0.98, 23.57 0" stroke="#1e1e1e" stroke-width="2" fill="none"></path></g><g transform="translate(2663.980467370724 683.7338392147401) rotate(0 40.26996612548828 12.5)"><text x="40.26996612548828" y="0" font-family="Virgil, Segoe UI Emoji" font-size="20px" fill="#1e1e1e" text-anchor="middle" style="white-space: pre;" direction="ltr" dominant-baseline="text-before-edge">MaxPool</text></g><g stroke-linecap="round"><g transform="translate(2606.982186778421 698.8820119699126) rotate(0 19.276363486496393 -0.7808358281253618)"><path d="M0.33 -0.3 C6.8 -0.57, 32.66 -1.33, 39.07 -1.62 M-0.17 0.74 C6.26 0.55, 32.45 -0.54, 38.9 -0.95" stroke="#1e1e1e" stroke-width="2" fill="none"></path></g><g transform="translate(2606.982186778421 698.8820119699126) rotate(0 19.276363486496393 -0.7808358281253618)"><path d="M21.13 6.56 C26.74 4.81, 33.3 1.7, 38.9 -0.95 M21.13 6.56 C24.61 4.43, 28.84 3.66, 38.9 -0.95" stroke="#1e1e1e" stroke-width="2" fill="none"></path></g><g transform="translate(2606.982186778421 698.8820119699126) rotate(0 19.276363486496393 -0.7808358281253618)"><path d="M20.46 -6.62 C26.31 -3.82, 33.1 -2.38, 38.9 -0.95 M20.46 -6.62 C24.05 -6.01, 28.42 -4.05, 38.9 -0.95" stroke="#1e1e1e" stroke-width="2" fill="none"></path></g></g><mask></mask><g stroke-linecap="round" transform="translate(2825.696803133998 624.6998295228166) rotate(0 67.93827459728277 66.04592869353408)"><path d="M32 0 C61.2 1.02, 89.45 -0.76, 103.88 0 M32 0 C53.09 0.15, 74.39 1.23, 103.88 0 M103.88 0 C127.09 -0.94, 135.44 11.72, 135.88 32 M103.88 0 C123.69 1.83, 137.85 11.12, 135.88 32 M135.88 32 C135.56 51.4, 137.7 65.57, 135.88 100.09 M135.88 32 C135.86 53.97, 134.71 75.61, 135.88 100.09 M135.88 100.09 C134.52 120.1, 126.98 130.23, 103.88 132.09 M135.88 100.09 C134.97 122.82, 124.88 133.61, 103.88 132.09 M103.88 132.09 C82.89 130.99, 65.09 133.45, 32 132.09 M103.88 132.09 C80.11 131.51, 55.89 131.52, 32 132.09 M32 132.09 C11.4 132.62, -0.73 121.52, 0 100.09 M32 132.09 C10.5 132.26, -1.55 123.3, 0 100.09 M0 100.09 C1.27 78.03, -0.35 51.27, 0 32 M0 100.09 C-1.15 83.51, -1.07 65.68, 0 32 M0 32 C1.91 9.25, 11.05 0.57, 32 0 M0 32 C-1.72 12.59, 9.64 -2.1, 32 0" stroke="#1e1e1e" stroke-width="2" fill="none"></path></g><g transform="translate(2856.8351051971013 678.2457582163506) rotate(0 36.79997253417969 12.5)"><text x="36.79997253417969" y="0" font-family="Virgil, Segoe UI Emoji" font-size="20px" fill="#1e1e1e" text-anchor="middle" style="white-space: pre;" direction="ltr" dominant-baseline="text-before-edge">Conv2D</text></g><g stroke-linecap="round"><g transform="translate(2765.9725879955718 694.7027340855693) rotate(0 21.657773823519165 -0.18617793766691193)"><path d="M0.24 0.45 C7.53 0.28, 36.11 -0.58, 43.24 -0.74 M-0.29 0.21 C6.95 0.08, 35.36 -0.19, 42.76 -0.23" stroke="#1e1e1e" stroke-width="2" fill="none"></path></g><g transform="translate(2765.9725879955718 694.7027340855693) rotate(0 21.657773823519165 -0.18617793766691193)"><path d="M22.47 7.34 C27.68 5.5, 30.6 3.39, 42.76 -0.23 M22.47 7.34 C27.84 5.54, 33.17 2.65, 42.76 -0.23" stroke="#1e1e1e" stroke-width="2" fill="none"></path></g><g transform="translate(2765.9725879955718 694.7027340855693) rotate(0 21.657773823519165 -0.18617793766691193)"><path d="M22.36 -7.48 C27.63 -6.09, 30.57 -4.99, 42.76 -0.23 M22.36 -7.48 C27.69 -5.26, 33.05 -4.13, 42.76 -0.23" stroke="#1e1e1e" stroke-width="2" fill="none"></path></g></g><mask></mask><g stroke-linecap="round" transform="translate(3152.9920600020228 621.3097237921654) rotate(0 75.33259537536651 70.99214853005762)"><path d="M32 0 C57.06 0.79, 81.63 -2.45, 118.67 0 M32 0 C62.29 -0.64, 91.24 -0.3, 118.67 0 M118.67 0 C139.14 -1.16, 149.84 10.31, 150.67 32 M118.67 0 C142.26 2.21, 151.56 12.9, 150.67 32 M150.67 32 C150.82 51.62, 150.72 72.78, 150.67 109.98 M150.67 32 C149.43 55.5, 150.49 78.45, 150.67 109.98 M150.67 109.98 C151.04 131.68, 141.36 141.67, 118.67 141.98 M150.67 109.98 C152.78 129.45, 138.76 140.17, 118.67 141.98 M118.67 141.98 C87.4 141.8, 53.94 140.53, 32 141.98 M118.67 141.98 C95.85 143.08, 74.03 141.26, 32 141.98 M32 141.98 C9.93 140.23, 1.21 131.64, 0 109.98 M32 141.98 C9.05 140.06, -2.12 130.29, 0 109.98 M0 109.98 C-1.84 79.69, 0.7 48.13, 0 32 M0 109.98 C-0.68 80.36, -0.34 50.6, 0 32 M0 32 C-1.29 9.45, 9.13 -1.68, 32 0 M0 32 C-1.48 8.41, 10.29 -1.3, 32 0" stroke="#1e1e1e" stroke-width="2" fill="none"></path></g><g transform="translate(3163.784715497018 679.8018723222231) rotate(0 64.5399398803711 12.5)"><text x="64.5399398803711" y="0" font-family="Virgil, Segoe UI Emoji" font-size="20px" fill="#1e1e1e" text-anchor="middle" style="white-space: pre;" direction="ltr" dominant-baseline="text-before-edge">Normalization</text></g><g stroke-linecap="round"><g transform="translate(3317.0815136910965 691.2306821295376) rotate(0 23.325038936954343 0.2911019218182389)"><path d="M0.04 -0.53 C7.8 -0.42, 38.75 0.71, 46.5 0.94 M-0.6 0.39 C7.08 0.31, 38.2 0.24, 45.99 0.16" stroke="#1e1e1e" stroke-width="2" fill="none"></path></g><g transform="translate(3317.0815136910965 691.2306821295376) rotate(0 23.325038936954343 0.2911019218182389)"><path d="M24.11 8.27 C29.54 5.6, 37.56 3.31, 45.99 0.16 M24.11 8.27 C31.94 4.98, 39.68 2.27, 45.99 0.16" stroke="#1e1e1e" stroke-width="2" fill="none"></path></g><g transform="translate(3317.0815136910965 691.2306821295376) rotate(0 23.325038936954343 0.2911019218182389)"><path d="M24.02 -7.69 C29.51 -5.68, 37.56 -3.29, 45.99 0.16 M24.02 -7.69 C31.89 -5.44, 39.67 -2.62, 45.99 0.16" stroke="#1e1e1e" stroke-width="2" fill="none"></path></g></g><mask></mask><g stroke-linecap="round" transform="translate(3373.57123450946 645.3628018286528) rotate(0 50.94884309138115 47.731021422451846)"><path d="M23.87 0 C38.66 -1.53, 52.39 1.05, 78.03 0 M23.87 0 C43.9 -0.27, 65.25 0.58, 78.03 0 M78.03 0 C93.55 -1.56, 100.97 6.58, 101.9 23.87 M78.03 0 C94.38 -1.21, 102.06 8.16, 101.9 23.87 M101.9 23.87 C101.33 33.05, 101 44.54, 101.9 71.6 M101.9 23.87 C101.14 41.75, 101.56 61.09, 101.9 71.6 M101.9 71.6 C102.01 88.81, 94.61 94.34, 78.03 95.46 M101.9 71.6 C101.99 85.37, 96.16 95.97, 78.03 95.46 M78.03 95.46 C65.86 96.37, 53.06 95.23, 23.87 95.46 M78.03 95.46 C61.61 95.12, 46.72 95.53, 23.87 95.46 M23.87 95.46 C6.63 95.17, -0.74 88.79, 0 71.6 M23.87 95.46 C9.45 95.91, 1.29 85.35, 0 71.6 M0 71.6 C-0.88 60.14, 1.76 43.61, 0 23.87 M0 71.6 C0.86 54.6, -0.16 36.35, 0 23.87 M0 23.87 C1.04 9.51, 7.49 0.1, 23.87 0 M0 23.87 C1.83 7.2, 8.07 1.54, 23.87 0" stroke="#1e1e1e" stroke-width="2" fill="none"></path></g><g transform="translate(3384.2501114753527 680.5938232511046) rotate(0 40.26996612548828 12.5)"><text x="40.26996612548828" y="0" font-family="Virgil, Segoe UI Emoji" font-size="20px" fill="#1e1e1e" text-anchor="middle" style="white-space: pre;" direction="ltr" dominant-baseline="text-before-edge">MaxPool</text></g><g stroke-linecap="round" transform="translate(3014.631285788442 648.563950846448) rotate(0 43.46282273205861 39.9226631411984)"><path d="M19.96 0 C31.4 -0.63, 45.65 0.53, 66.96 0 M19.96 0 C35.47 0.08, 50.56 -0.49, 66.96 0 M66.96 0 C81.87 -0.68, 88.86 5.41, 86.93 19.96 M66.96 0 C79.23 1.98, 88.07 6.99, 86.93 19.96 M86.93 19.96 C85.98 31.27, 87.16 47.09, 86.93 59.88 M86.93 19.96 C87.88 29.33, 88.02 37.24, 86.93 59.88 M86.93 59.88 C88.27 71.32, 79.15 81.68, 66.96 79.85 M86.93 59.88 C84.94 74.13, 81.98 81.77, 66.96 79.85 M66.96 79.85 C57.66 81.11, 45.51 80.67, 19.96 79.85 M66.96 79.85 C52.31 80.77, 37.69 80.1, 19.96 79.85 M19.96 79.85 C5.88 80.19, -0.35 72.79, 0 59.88 M19.96 79.85 C6.94 79.22, 0.92 71.15, 0 59.88 M0 59.88 C1.85 51.46, 1.64 40.41, 0 19.96 M0 59.88 C-0.66 44.78, 0.64 29.09, 0 19.96 M0 19.96 C0.14 7.85, 5.33 0.03, 19.96 0 M0 19.96 C1.01 8.34, 4.56 -1.52, 19.96 0" stroke="#1e1e1e" stroke-width="2" fill="none"></path></g><g transform="translate(3021.2941359863207 675.9866139876465) rotate(0 36.79997253417969 12.5)"><text x="36.79997253417969" y="0" font-family="Virgil, Segoe UI Emoji" font-size="20px" fill="#1e1e1e" text-anchor="middle" style="white-space: pre;" direction="ltr" dominant-baseline="text-before-edge">Conv2D</text></g><g stroke-linecap="round"><g transform="translate(2975.9757441334546 683.7932626933273) rotate(0 15.333281493222785 0)"><path d="M0.47 0.34 C5.67 0.27, 26.09 -0.34, 31.17 -0.38 M0.05 0.04 C5.22 0.02, 25.87 0, 31 0.13" stroke="#1e1e1e" stroke-width="2" fill="none"></path></g><g transform="translate(2975.9757441334546 683.7932626933273) rotate(0 15.333281493222785 0)"><path d="M16.54 5.23 C21.39 4.34, 24.75 2.55, 31 0.13 M16.54 5.23 C21.14 3.63, 25.74 1.55, 31 0.13" stroke="#1e1e1e" stroke-width="2" fill="none"></path></g><g transform="translate(2975.9757441334546 683.7932626933273) rotate(0 15.333281493222785 0)"><path d="M16.65 -5.26 C21.46 -2.98, 24.8 -1.6, 31 0.13 M16.65 -5.26 C21.26 -3.48, 25.83 -2.17, 31 0.13" stroke="#1e1e1e" stroke-width="2" fill="none"></path></g></g><mask></mask><g stroke-linecap="round"><g transform="translate(3114.7533346253963 683.5042700736653) rotate(0 12.437797746224305 0)"><path d="M-0.45 0.51 C3.75 0.38, 21.23 -0.33, 25.42 -0.32 M0.32 0.3 C4.48 0.47, 21.28 0.3, 25.27 0.21" stroke="#1e1e1e" stroke-width="2" fill="none"></path></g><g transform="translate(3114.7533346253963 683.5042700736653) rotate(0 12.437797746224305 0)"><path d="M13.65 4.63 C18.17 3.79, 21.2 1.47, 25.27 0.21 M13.65 4.63 C18.07 2.64, 23.23 1.11, 25.27 0.21" stroke="#1e1e1e" stroke-width="2" fill="none"></path></g><g transform="translate(3114.7533346253963 683.5042700736653) rotate(0 12.437797746224305 0)"><path d="M13.52 -3.88 C18.13 -1.82, 21.19 -1.23, 25.27 0.21 M13.52 -3.88 C17.97 -2.48, 23.17 -0.62, 25.27 0.21" stroke="#1e1e1e" stroke-width="2" fill="none"></path></g></g><mask></mask><g stroke-linecap="round"><g transform="translate(3484.8139416530244 685.9329195889018) rotate(0 18.840095781814398 -0.17228406172159794)"><path d="M0.26 -0.5 C6.55 -0.52, 31.73 -0.53, 37.95 -0.6 M-0.27 0.43 C5.96 0.52, 31.41 0.14, 37.66 -0.02" stroke="#1e1e1e" stroke-width="2" fill="none"></path></g><g transform="translate(3484.8139416530244 685.9329195889018) rotate(0 18.840095781814398 -0.17228406172159794)"><path d="M20.08 6.76 C25.11 4.92, 31.4 2.04, 37.66 -0.02 M20.08 6.76 C23.26 5.6, 27.25 4.21, 37.66 -0.02" stroke="#1e1e1e" stroke-width="2" fill="none"></path></g><g transform="translate(3484.8139416530244 685.9329195889018) rotate(0 18.840095781814398 -0.17228406172159794)"><path d="M19.83 -6.12 C24.88 -3.67, 31.26 -2.25, 37.66 -0.02 M19.83 -6.12 C23.11 -4.69, 27.14 -3.49, 37.66 -0.02" stroke="#1e1e1e" stroke-width="2" fill="none"></path></g></g><mask></mask><g stroke-linecap="round" transform="translate(3548.93092435932 561.032360544708) rotate(0 19.93540921233398 133.80931230031416)"><path d="M9.97 0 C13.62 -0.95, 20.38 1.49, 29.9 0 M9.97 0 C15.01 0.93, 21.25 -0.65, 29.9 0 M29.9 0 C36.77 -0.98, 40.07 2.98, 39.87 9.97 M29.9 0 C38.72 1.02, 41.01 4.74, 39.87 9.97 M39.87 9.97 C41.34 106.08, 40.2 199.38, 39.87 257.65 M39.87 9.97 C39.22 78.22, 39.07 146.93, 39.87 257.65 M39.87 257.65 C40.98 263.54, 38.15 268.05, 29.9 267.62 M39.87 257.65 C40.26 265.4, 34.37 266.74, 29.9 267.62 M29.9 267.62 C22.49 265.67, 14.95 268.52, 9.97 267.62 M29.9 267.62 C24.17 267.09, 17.91 268.05, 9.97 267.62 M9.97 267.62 C1.87 268.6, -1.5 262.45, 0 257.65 M9.97 267.62 C4.49 266.81, -0.99 262.58, 0 257.65 M0 257.65 C-2.52 189.13, -1.95 121.92, 0 9.97 M0 257.65 C0.3 176.95, 1.13 97.29, 0 9.97 M0 9.97 C-1.44 1.87, 3.09 -0.48, 9.97 0 M0 9.97 C0.78 2.06, 3.11 0.36, 9.97 0" stroke="#1e1e1e" stroke-width="2" fill="none"></path></g><g transform="translate(3562.8170651161427 572.4514433462093) rotate(0 6.879997253417969 125)"><text x="0" y="0" font-family="Virgil, Segoe UI Emoji" font-size="20px" fill="#1e1e1e" text-anchor="start" style="white-space: pre;" direction="ltr" dominant-baseline="text-before-edge">1</text><text x="0" y="25" font-family="Virgil, Segoe UI Emoji" font-size="20px" fill="#1e1e1e" text-anchor="start" style="white-space: pre;" direction="ltr" dominant-baseline="text-before-edge">0</text><text x="0" y="50" font-family="Virgil, Segoe UI Emoji" font-size="20px" fill="#1e1e1e" text-anchor="start" style="white-space: pre;" direction="ltr" dominant-baseline="text-before-edge">1</text><text x="0" y="75" font-family="Virgil, Segoe UI Emoji" font-size="20px" fill="#1e1e1e" text-anchor="start" style="white-space: pre;" direction="ltr" dominant-baseline="text-before-edge">1</text><text x="0" y="100" font-family="Virgil, Segoe UI Emoji" font-size="20px" fill="#1e1e1e" text-anchor="start" style="white-space: pre;" direction="ltr" dominant-baseline="text-before-edge">1</text><text x="0" y="125" font-family="Virgil, Segoe UI Emoji" font-size="20px" fill="#1e1e1e" text-anchor="start" style="white-space: pre;" direction="ltr" dominant-baseline="text-before-edge">0</text><text x="0" y="150" font-family="Virgil, Segoe UI Emoji" font-size="20px" fill="#1e1e1e" text-anchor="start" style="white-space: pre;" direction="ltr" dominant-baseline="text-before-edge">.</text><text x="0" y="175" font-family="Virgil, Segoe UI Emoji" font-size="20px" fill="#1e1e1e" text-anchor="start" style="white-space: pre;" direction="ltr" dominant-baseline="text-before-edge">.</text><text x="0" y="200" font-family="Virgil, Segoe UI Emoji" font-size="20px" fill="#1e1e1e" text-anchor="start" style="white-space: pre;" direction="ltr" dominant-baseline="text-before-edge">0</text><text x="0" y="225" font-family="Virgil, Segoe UI Emoji" font-size="20px" fill="#1e1e1e" text-anchor="start" style="white-space: pre;" direction="ltr" dominant-baseline="text-before-edge">1</text></g><g stroke-linecap="round" transform="translate(3660.2593903504903 528.429866070555) rotate(0 30.861480457982452 29.37151755298855)"><path d="M24.56 -0.14 C30.42 -1.53, 39.22 1.04, 45.16 4.28 C51.11 7.51, 57.61 13.53, 60.22 19.29 C62.84 25.04, 62.91 33.04, 60.87 38.79 C58.83 44.55, 53.85 50.45, 47.97 53.84 C42.1 57.23, 32.18 59.82, 25.62 59.13 C19.05 58.43, 12.99 54.56, 8.57 49.67 C4.16 44.77, -0.67 36.35, -0.88 29.77 C-1.09 23.18, 2.49 15.2, 7.31 10.15 C12.12 5.11, 23.94 1.05, 28 -0.49 C32.06 -2.02, 31.55 0.5, 31.67 0.95 M24.46 0.86 C30.79 -0.74, 41.61 1.01, 47.27 4 C52.93 6.99, 56.08 13.01, 58.42 18.79 C60.77 24.56, 63.24 32.84, 61.35 38.65 C59.46 44.47, 52.96 50.62, 47.09 53.68 C41.21 56.74, 32.69 57.83, 26.09 57.01 C19.48 56.2, 11.94 53.3, 7.47 48.79 C2.99 44.27, -0.77 36.48, -0.77 29.93 C-0.77 23.38, 3.26 14.55, 7.46 9.5 C11.66 4.45, 21.56 1.19, 24.45 -0.38 C27.33 -1.96, 24.58 -0.36, 24.77 0.04" stroke="#1e1e1e" stroke-width="2" fill="none"></path></g><g stroke-linecap="round" transform="translate(3658.4557510444447 609.3203561598536) rotate(0 30.861480457982452 29.371517552988536)"><path d="M25.61 1.12 C31.88 0.05, 41.52 1.77, 47.38 4.9 C53.24 8.03, 58.54 14.18, 60.75 19.92 C62.95 25.65, 63.23 33.33, 60.63 39.3 C58.02 45.27, 50.93 52.45, 45.13 55.73 C39.33 59.02, 32.33 60.38, 25.81 59 C19.29 57.62, 10.21 52.64, 6.02 47.47 C1.82 42.29, 0.39 34.25, 0.64 27.93 C0.89 21.61, 2.24 14.12, 7.5 9.53 C12.77 4.94, 27.13 1.87, 32.26 0.38 C37.39 -1.11, 38.4 0.16, 38.28 0.58 M42.78 2.01 C48.71 3.62, 53.02 9.17, 56.32 14.52 C59.63 19.87, 63.49 28.03, 62.62 34.1 C61.76 40.18, 56.41 47.08, 51.14 50.97 C45.87 54.86, 37.71 57.23, 31.02 57.42 C24.33 57.61, 16.2 55.91, 10.97 52.12 C5.75 48.32, 0.73 41.08, -0.33 34.62 C-1.39 28.16, 1.29 19, 4.62 13.37 C7.96 7.74, 13.61 2.94, 19.67 0.84 C25.73 -1.25, 37.41 0.77, 40.98 0.8 C44.56 0.82, 41.17 0.13, 41.1 0.99" stroke="#1e1e1e" stroke-width="2" fill="none"></path></g><g stroke-linecap="round" transform="translate(3656.217242182397 687.4162746761493) rotate(0 30.861480457982452 29.371517552988536)"><path d="M20.39 2.71 C26.29 0.11, 35.25 -0.09, 41.55 1.73 C47.85 3.55, 55.03 8.15, 58.2 13.63 C61.38 19.1, 61.65 28.14, 60.61 34.58 C59.57 41.03, 56.96 48.32, 51.96 52.27 C46.95 56.22, 37.23 58.47, 30.59 58.31 C23.96 58.14, 17.15 55.25, 12.14 51.27 C7.14 47.29, 1.9 40.4, 0.56 34.45 C-0.79 28.49, 0.23 21.28, 4.06 15.56 C7.88 9.85, 19.78 2.61, 23.49 0.14 C27.2 -2.32, 26.13 0.28, 26.31 0.8 M33.32 -0.08 C39.64 0.16, 50.04 4.35, 54.86 8.84 C59.69 13.34, 62.1 20.72, 62.26 26.88 C62.41 33.03, 59.88 40.51, 55.81 45.76 C51.74 51.01, 44.46 56.67, 37.84 58.35 C31.21 60.03, 21.87 58.95, 16.03 55.83 C10.2 52.71, 5.42 45.62, 2.84 39.63 C0.26 33.63, -1.21 25.86, 0.56 19.86 C2.34 13.87, 7.86 7.19, 13.5 3.68 C19.14 0.18, 30.88 -0.91, 34.41 -1.16 C37.94 -1.42, 34.66 1.35, 34.68 2.15" stroke="#1e1e1e" stroke-width="2" fill="none"></path></g><g stroke-linecap="round" transform="translate(3656.069909327358 801.009905911421) rotate(0 30.861480457982452 29.371517552988564)"><path d="M42.83 2.18 C48.87 3.8, 55.96 9.14, 58.89 14.76 C61.81 20.37, 61.7 29.47, 60.37 35.87 C59.04 42.26, 56.1 49.37, 50.91 53.11 C45.72 56.85, 35.86 58.75, 29.22 58.3 C22.59 57.86, 15.91 54.62, 11.1 50.43 C6.28 46.24, 1.38 39.16, 0.32 33.16 C-0.74 27.16, 1.23 19.84, 4.74 14.44 C8.25 9.03, 14.87 2.67, 21.39 0.74 C27.92 -1.19, 39.68 2.32, 43.91 2.86 C48.14 3.39, 46.89 3.38, 46.77 3.96 M34.17 -0.48 C40.78 -0.6, 48.08 2.87, 52.7 7.08 C57.31 11.28, 61.2 18.26, 61.86 24.74 C62.52 31.22, 60.5 40.43, 56.66 45.95 C52.83 51.47, 45.12 56.32, 38.83 57.85 C32.54 59.38, 25 57.83, 18.94 55.12 C12.87 52.41, 5.54 47.19, 2.43 41.58 C-0.68 35.97, -1.37 27.67, 0.26 21.46 C1.9 15.26, 6.83 7.7, 12.26 4.36 C17.69 1.01, 29.4 1.93, 32.85 1.4 C36.3 0.86, 32.98 0.71, 32.95 1.14" stroke="#1e1e1e" stroke-width="2" fill="none"></path></g><g stroke-linecap="round"><g transform="translate(3683.528770088431 762.4366641751953) rotate(0 3.2033014289181665 -0.1948595824712811)"><path d="M0.27 0.24 C1.42 0.24, 5.63 -0.08, 6.67 -0.13 M-0.03 0.05 C1.13 -0.03, 5.47 -0.52, 6.52 -0.62" stroke="#1e1e1e" stroke-width="2" fill="none"></path></g></g><mask></mask><g stroke-linecap="round"><g transform="translate(3683.979600861747 772.2785322109327) rotate(0 3.2033014289181665 -0.1948595824712811)"><path d="M0.26 0.26 C1.29 0.21, 5.47 0.09, 6.46 -0.06 M-0.03 0.08 C0.93 -0.08, 5.23 -0.43, 6.21 -0.51" stroke="#1e1e1e" stroke-width="2" fill="none"></path></g></g><mask></mask><g stroke-linecap="round"><g transform="translate(3683.624028728025 781.6003713530067) rotate(0 3.2033014289181665 -0.1948595824712811)"><path d="M0.06 0.33 C1.05 0.18, 5.11 -0.58, 6.21 -0.65 M-0.34 0.19 C0.74 0.06, 5.76 -0.2, 6.91 -0.34" stroke="#1e1e1e" stroke-width="2" fill="none"></path></g></g><mask></mask><g stroke-linecap="round"><g transform="translate(3603.0563834978248 678.1579066099171) rotate(0 16.4586854447914 0.4779493325179942)"><path d="M0.08 0.49 C5.55 0.62, 27.53 0.27, 32.92 0.44 M-0.54 0.26 C4.85 0.47, 26.82 0.8, 32.49 0.87" stroke="#1e1e1e" stroke-width="2" fill="none"></path></g><g transform="translate(3603.0563834978248 678.1579066099171) rotate(0 16.4586854447914 0.4779493325179942)"><path d="M16.94 6.28 C22.7 4.54, 26.2 2.04, 32.49 0.87 M16.94 6.28 C22.78 3.84, 28.88 2.22, 32.49 0.87" stroke="#1e1e1e" stroke-width="2" fill="none"></path></g><g transform="translate(3603.0563834978248 678.1579066099171) rotate(0 16.4586854447914 0.4779493325179942)"><path d="M17.1 -4.98 C22.77 -3.1, 26.22 -1.97, 32.49 0.87 M17.1 -4.98 C22.91 -2.97, 28.95 -0.13, 32.49 0.87" stroke="#1e1e1e" stroke-width="2" fill="none"></path></g></g><mask></mask><g stroke-linecap="round" transform="translate(3757.266196931901 576.1125790087589) rotate(0 22.85444338012053 21.751052604780824)"><path d="M24.71 -0.18 C29.37 -0.16, 35.87 2.62, 39.43 5.99 C43 9.35, 45.7 15.29, 46.08 20.02 C46.47 24.74, 44.69 30.6, 41.74 34.35 C38.79 38.1, 33.08 41.42, 28.37 42.53 C23.66 43.65, 17.81 42.92, 13.48 41.06 C9.16 39.19, 4.58 35.5, 2.41 31.36 C0.25 27.21, -0.72 20.84, 0.49 16.21 C1.71 11.58, 5.43 6.25, 9.69 3.58 C13.96 0.91, 23.17 0.65, 26.09 0.18 C29.02 -0.3, 27.36 0.33, 27.24 0.73 M29.07 0.22 C33.66 1.15, 39.05 5.47, 41.87 9.35 C44.7 13.24, 46.47 19.03, 46.04 23.53 C45.6 28.04, 42.83 32.95, 39.26 36.36 C35.68 39.78, 29.33 43.4, 24.58 44 C19.83 44.61, 14.66 42.78, 10.78 40.02 C6.89 37.25, 2.81 31.97, 1.27 27.42 C-0.27 22.87, -0.28 16.96, 1.55 12.72 C3.37 8.48, 7.81 3.87, 12.21 1.96 C16.6 0.05, 25.33 1.47, 27.92 1.26 C30.52 1.06, 27.78 0.44, 27.79 0.75" stroke="#1e1e1e" stroke-width="2" fill="none"></path></g><g stroke-linecap="round" transform="translate(3755.930513361753 636.0159633669093) rotate(0 22.85444338012053 21.751052604780824)"><path d="M25.43 -0.35 C30.2 -0.14, 36.22 3.18, 39.63 6.59 C43.04 10.01, 45.61 15.53, 45.86 20.12 C46.11 24.71, 43.96 30.43, 41.14 34.16 C38.31 37.88, 33.56 41.16, 28.92 42.45 C24.28 43.73, 17.83 43.79, 13.3 41.87 C8.77 39.95, 3.83 35.3, 1.73 30.92 C-0.37 26.54, -0.66 20.13, 0.71 15.61 C2.07 11.08, 5.62 6.34, 9.94 3.77 C14.25 1.2, 23.68 0.62, 26.59 0.18 C29.51 -0.26, 27.4 0.71, 27.41 1.14 M20.91 0.48 C25.46 -0.16, 31.99 1.47, 35.97 3.92 C39.95 6.36, 43.6 10.64, 44.8 15.18 C45.99 19.72, 44.99 26.77, 43.13 31.17 C41.28 35.56, 37.89 39.63, 33.66 41.53 C29.44 43.43, 22.73 43.76, 17.77 42.57 C12.82 41.39, 7.02 38.18, 3.96 34.43 C0.89 30.68, -0.93 24.59, -0.61 20.06 C-0.29 15.54, 2.46 10.67, 5.87 7.29 C9.29 3.91, 17.43 0.86, 19.88 -0.2 C22.33 -1.27, 20.41 0.45, 20.57 0.87" stroke="#1e1e1e" stroke-width="2" fill="none"></path></g><g stroke-linecap="round" transform="translate(3754.272787507893 693.8498300985854) rotate(0 22.85444338012053 21.751052604780824)"><path d="M20.26 0.26 C24.81 -0.52, 31.29 0.98, 35.3 3.42 C39.31 5.86, 42.81 10.53, 44.32 14.9 C45.84 19.27, 46.13 25.21, 44.37 29.65 C42.61 34.09, 38.23 39.26, 33.78 41.51 C29.33 43.77, 22.52 44.31, 17.66 43.18 C12.8 42.05, 7.57 38.46, 4.63 34.74 C1.69 31.01, -0.22 25.45, 0.02 20.82 C0.26 16.2, 2.71 10.42, 6.06 7 C9.42 3.58, 17.52 1.32, 20.14 0.29 C22.75 -0.74, 21.7 0.41, 21.76 0.81 M19.96 0.45 C24.44 -0.6, 30.87 0.21, 34.87 2.73 C38.86 5.25, 42.28 11, 43.93 15.56 C45.59 20.11, 46.46 25.89, 44.82 30.07 C43.17 34.24, 38.58 38.48, 34.07 40.62 C29.56 42.75, 22.73 43.84, 17.76 42.9 C12.79 41.96, 7.29 38.52, 4.24 34.99 C1.2 31.46, -0.66 26.37, -0.49 21.7 C-0.32 17.02, 1.92 10.46, 5.28 6.94 C8.64 3.41, 17.26 1.58, 19.69 0.54 C22.12 -0.49, 19.86 0.34, 19.84 0.72" stroke="#1e1e1e" stroke-width="2" fill="none"></path></g><g stroke-linecap="round" transform="translate(3754.16368028609 777.9714981094052) rotate(0 22.85444338012053 21.751052604780796)"><path d="M17.98 0.59 C22.33 -0.72, 28.58 0.09, 32.97 2.14 C37.35 4.2, 42.28 8.51, 44.29 12.93 C46.29 17.35, 46.57 24.11, 45.01 28.65 C43.45 33.2, 39.14 37.8, 34.95 40.19 C30.76 42.59, 24.69 43.65, 19.89 43.03 C15.08 42.42, 9.4 39.89, 6.11 36.51 C2.82 33.13, 0.44 27.36, 0.13 22.74 C-0.18 18.12, 1.07 12.48, 4.25 8.8 C7.43 5.12, 16.66 1.97, 19.21 0.68 C21.75 -0.61, 19.59 0.72, 19.53 1.08 M25.54 -0.37 C30.03 -0.06, 35.41 3.95, 38.89 7.48 C42.36 11, 45.97 16.29, 46.41 20.79 C46.85 25.29, 44.68 30.82, 41.55 34.48 C38.42 38.15, 32.58 41.7, 27.63 42.78 C22.69 43.85, 16.27 42.91, 11.89 40.94 C7.51 38.97, 3.26 35.23, 1.35 30.93 C-0.56 26.63, -1.07 19.65, 0.45 15.14 C1.97 10.63, 6.24 6.36, 10.45 3.87 C14.67 1.38, 23.3 0.69, 25.76 0.22 C28.22 -0.25, 25.4 0.74, 25.2 1.04" stroke="#1e1e1e" stroke-width="2" fill="none"></path></g><g stroke-linecap="round"><g transform="translate(3774.4983165133103 749.4061164049042) rotate(0 2.3722021772850894 -0.1443030998051711)"><path d="M-0.32 0.32 C0.51 0.26, 3.94 0.01, 4.79 -0.13 M0.16 0.18 C0.97 -0.01, 3.81 -0.61, 4.54 -0.67" stroke="#1e1e1e" stroke-width="2" fill="none"></path></g></g><mask></mask><g stroke-linecap="round"><g transform="translate(3774.8321788630697 756.6945034958479) rotate(0 2.3722021772850894 -0.1443030998051711)"><path d="M0.05 0.16 C0.9 0.02, 4.02 -0.48, 4.78 -0.51 M-0.35 -0.07 C0.48 -0.02, 3.75 -0.08, 4.52 -0.17" stroke="#1e1e1e" stroke-width="2" fill="none"></path></g></g><mask></mask><g stroke-linecap="round"><g transform="translate(3774.5688602186924 763.5977836272461) rotate(0 2.3722021772850894 -0.1443030998051711)"><path d="M0.03 -0.22 C0.79 -0.25, 3.82 -0.05, 4.57 -0.02 M-0.38 0.44 C0.49 0.3, 4.34 -0.33, 5.27 -0.51" stroke="#1e1e1e" stroke-width="2" fill="none"></path></g></g><mask></mask><g stroke-linecap="round" transform="translate(3842.8447648309298 581.0517867565884) rotate(0 13.632455179471435 12.974293217699682)"><path d="M13.51 -0.09 C16.32 -0.3, 20.02 0.84, 22.23 2.57 C24.44 4.3, 26.17 7.44, 26.78 10.29 C27.39 13.14, 27.35 17.16, 25.92 19.67 C24.48 22.18, 20.97 24.37, 18.16 25.36 C15.35 26.34, 11.8 26.54, 9.05 25.59 C6.31 24.64, 3.16 22.15, 1.7 19.67 C0.24 17.19, -0.2 13.39, 0.29 10.69 C0.78 7.99, 2.37 5.19, 4.62 3.46 C6.87 1.73, 12.1 0.89, 13.8 0.31 C15.5 -0.28, 14.76 -0.21, 14.8 -0.07 M11.89 -0.18 C14.45 -0.83, 17.76 0.05, 20.19 1.59 C22.62 3.12, 25.42 6.34, 26.45 9.04 C27.49 11.73, 27.39 15.19, 26.4 17.78 C25.42 20.37, 23.04 23.27, 20.52 24.59 C18.01 25.91, 14.24 26.23, 11.32 25.71 C8.4 25.19, 4.93 23.58, 3.01 21.45 C1.09 19.32, -0.29 15.8, -0.2 12.91 C-0.1 10.01, 1.54 6.33, 3.57 4.1 C5.61 1.86, 10.75 0, 11.99 -0.51 C13.24 -1.01, 11.24 0.72, 11.05 1.05" stroke="#1e1e1e" stroke-width="2" fill="none"></path></g><g stroke-linecap="round" transform="translate(3842.048042456154 616.7835781101885) rotate(0 13.632455179471435 12.974293217699682)"><path d="M11.45 -0.11 C14.09 -0.72, 17.76 0.1, 20.33 1.63 C22.89 3.17, 25.87 6.4, 26.82 9.1 C27.76 11.79, 27.11 15.22, 25.99 17.81 C24.88 20.39, 22.68 23.28, 20.16 24.6 C17.63 25.91, 13.69 26.31, 10.87 25.7 C8.05 25.09, 5.06 23.02, 3.25 20.92 C1.43 18.82, -0.01 15.78, -0.02 13.11 C-0.04 10.43, 1.14 7.08, 3.17 4.85 C5.2 2.63, 10.62 0.55, 12.17 -0.23 C13.71 -1.01, 12.52 -0.16, 12.43 0.18 M13.6 -0.15 C16.27 -0.13, 20.34 1.76, 22.58 3.67 C24.82 5.58, 26.59 8.57, 27.06 11.3 C27.53 14.03, 26.89 17.71, 25.4 20.03 C23.91 22.34, 20.94 24.33, 18.14 25.2 C15.33 26.06, 11.35 26.23, 8.58 25.23 C5.81 24.23, 2.84 21.75, 1.51 19.21 C0.19 16.67, -0.08 12.81, 0.63 9.97 C1.34 7.13, 3.61 3.76, 5.77 2.19 C7.93 0.63, 12.36 0.93, 13.6 0.6 C14.84 0.27, 13.25 0.1, 13.2 0.24" stroke="#1e1e1e" stroke-width="2" fill="none"></path></g><g stroke-linecap="round" transform="translate(3841.0592249633487 651.2809221479297) rotate(0 13.632455179471435 12.974293217699682)"><path d="M12.79 -0.15 C15.6 -0.31, 19.95 1.36, 22.25 3.12 C24.54 4.88, 25.98 7.74, 26.53 10.43 C27.08 13.12, 26.87 16.86, 25.55 19.27 C24.22 21.69, 21.24 23.96, 18.6 24.92 C15.95 25.88, 12.43 25.83, 9.69 25.05 C6.94 24.26, 3.74 22.45, 2.12 20.21 C0.51 17.97, -0.42 14.46, 0.02 11.61 C0.46 8.75, 2.5 5.04, 4.78 3.08 C7.06 1.12, 12.22 0.25, 13.69 -0.15 C15.16 -0.56, 13.64 0.34, 13.61 0.65 M11.96 0.59 C14.73 0.19, 18.54 0.95, 21 2.44 C23.46 3.93, 25.87 6.95, 26.74 9.54 C27.62 12.13, 27.43 15.46, 26.25 17.98 C25.07 20.5, 22.31 23.4, 19.67 24.66 C17.03 25.93, 13.15 26.29, 10.39 25.56 C7.64 24.83, 4.75 22.59, 3.14 20.27 C1.53 17.94, 0.7 14.2, 0.74 11.62 C0.78 9.03, 1.62 6.67, 3.38 4.74 C5.14 2.82, 9.94 0.79, 11.29 0.08 C12.64 -0.64, 11.36 0.23, 11.48 0.47" stroke="#1e1e1e" stroke-width="2" fill="none"></path></g><g stroke-linecap="round" transform="translate(3841.758472611551 684.699464881078) rotate(0 13.632455179471435 12.974293217699682)"><path d="M12.01 0.59 C14.7 0.12, 18 0.79, 20.4 2.23 C22.79 3.67, 25.45 6.65, 26.39 9.24 C27.32 11.83, 27.05 15.27, 26.02 17.75 C24.99 20.23, 22.75 22.73, 20.22 24.09 C17.69 25.46, 13.73 26.38, 10.83 25.92 C7.93 25.46, 4.58 23.59, 2.83 21.31 C1.09 19.03, 0.24 15.09, 0.38 12.23 C0.52 9.38, 1.75 6.14, 3.66 4.18 C5.57 2.22, 10.34 1.04, 11.86 0.46 C13.38 -0.12, 12.75 0.58, 12.79 0.7 M12.91 0.38 C15.68 0.06, 19.59 1.39, 21.94 3 C24.28 4.61, 26.37 7.37, 26.98 10.04 C27.59 12.71, 26.97 16.55, 25.6 19.03 C24.22 21.5, 21.34 23.9, 18.74 24.86 C16.14 25.83, 12.64 25.76, 10 24.84 C7.37 23.91, 4.6 21.46, 2.91 19.32 C1.21 17.17, -0.29 14.61, -0.16 11.97 C-0.03 9.32, 1.6 5.42, 3.7 3.45 C5.8 1.47, 10.91 0.64, 12.45 0.12 C13.98 -0.39, 12.86 0.16, 12.9 0.38" stroke="#1e1e1e" stroke-width="2" fill="none"></path></g><g stroke-linecap="round" transform="translate(3840.961750236774 720.431256234678) rotate(0 13.632455179471435 12.974293217699682)"><path d="M12.13 0.33 C14.79 -0.07, 18.93 1.17, 21.34 2.73 C23.74 4.28, 25.76 7.09, 26.55 9.67 C27.34 12.25, 27.29 15.67, 26.08 18.23 C24.87 20.79, 21.98 23.75, 19.28 25.01 C16.59 26.27, 12.67 26.62, 9.92 25.79 C7.17 24.95, 4.4 22.36, 2.79 20 C1.18 17.63, 0.1 14.25, 0.26 11.6 C0.41 8.96, 1.6 5.99, 3.71 4.13 C5.82 2.27, 11.37 1.1, 12.92 0.43 C14.46 -0.24, 13 -0.06, 12.99 0.09 M15.95 0.55 C18.73 0.76, 22.19 2.43, 24.05 4.5 C25.91 6.57, 27.11 10.21, 27.09 12.99 C27.08 15.77, 25.72 19.12, 23.96 21.16 C22.2 23.19, 19.23 24.79, 16.51 25.19 C13.79 25.6, 10.3 24.75, 7.65 23.57 C5 22.39, 1.86 20.62, 0.6 18.13 C-0.65 15.64, -0.81 11.33, 0.12 8.63 C1.06 5.93, 3.59 3.3, 6.21 1.91 C8.82 0.52, 14.26 0.5, 15.81 0.28 C17.36 0.05, 15.48 0.23, 15.5 0.55" stroke="#1e1e1e" stroke-width="2" fill="none"></path></g><g stroke-linecap="round" transform="translate(3839.9729327439695 754.9286002724193) rotate(0 13.632455179471435 12.974293217699682)"><path d="M16.51 0.66 C19.27 1.04, 22.43 3.02, 24.24 5.13 C26.05 7.25, 27.49 10.52, 27.38 13.34 C27.27 16.16, 25.61 19.93, 23.58 22.06 C21.55 24.2, 18.04 25.91, 15.2 26.16 C12.37 26.4, 8.99 25.1, 6.58 23.51 C4.18 21.92, 1.77 19.15, 0.8 16.62 C-0.18 14.08, -0.38 10.76, 0.73 8.3 C1.85 5.83, 4.75 3.16, 7.47 1.83 C10.2 0.49, 15.36 0.46, 17.07 0.31 C18.78 0.15, 17.7 0.68, 17.74 0.91 M15.34 0.05 C18.07 0.17, 21.47 2.23, 23.42 4.25 C25.37 6.28, 26.8 9.55, 27.05 12.22 C27.3 14.88, 26.51 18.12, 24.91 20.24 C23.31 22.35, 20.39 24.09, 17.44 24.91 C14.48 25.73, 10.03 26.29, 7.19 25.14 C4.36 23.99, 1.62 20.67, 0.44 18.03 C-0.75 15.39, -0.86 11.94, 0.09 9.3 C1.04 6.66, 3.66 3.72, 6.13 2.2 C8.61 0.69, 13.39 0.4, 14.95 0.22 C16.52 0.03, 15.6 0.89, 15.52 1.1" stroke="#1e1e1e" stroke-width="2" fill="none"></path></g><g transform="translate(3882.8010683417797 582.3726018403198) rotate(0 25.22998046875 12.5)"><text x="0" y="0" font-family="Virgil, Segoe UI Emoji" font-size="20px" fill="#1e1e1e" text-anchor="start" style="white-space: pre;" direction="ltr" dominant-baseline="text-before-edge">Angry</text></g><g transform="translate(3879.4834749715465 617.2824455614978) rotate(0 37.18995666503906 12.5)"><text x="0" y="0" font-family="Virgil, Segoe UI Emoji" font-size="20px" fill="#1e1e1e" text-anchor="start" style="white-space: pre;" direction="ltr" dominant-baseline="text-before-edge">Disgust</text></g><g transform="translate(3879.048844959159 652.1508267286977) rotate(0 22.17998504638672 12.5)"><text x="0" y="0" font-family="Virgil, Segoe UI Emoji" font-size="20px" fill="#1e1e1e" text-anchor="start" style="white-space: pre;" direction="ltr" dominant-baseline="text-before-edge">Fear</text></g><g transform="translate(3877.854240503146 685.1814515140396) rotate(0 26.72997283935547 12.5)"><text x="0" y="0" font-family="Virgil, Segoe UI Emoji" font-size="20px" fill="#1e1e1e" text-anchor="start" style="white-space: pre;" direction="ltr" dominant-baseline="text-before-edge">Happy</text></g><g transform="translate(3877.757516483048 723.4175871991897) rotate(0 18.439987182617188 12.5)"><text x="0" y="0" font-family="Virgil, Segoe UI Emoji" font-size="20px" fill="#1e1e1e" text-anchor="start" style="white-space: pre;" direction="ltr" dominant-baseline="text-before-edge">Sad</text></g><g transform="translate(3877.2676156020348 756.336414091172) rotate(0 38.37995147705078 12.5)"><text x="0" y="0" font-family="Virgil, Segoe UI Emoji" font-size="20px" fill="#1e1e1e" text-anchor="start" style="white-space: pre;" direction="ltr" dominant-baseline="text-before-edge">Surprise</text></g><g stroke-linecap="round" transform="translate(3841.4670039691237 791.4440758822483) rotate(0 13.632455179471435 12.97429321769971)"><path d="M14.36 0.2 C17.16 0.21, 20.82 2.05, 23.03 3.86 C25.25 5.68, 27.39 8.47, 27.65 11.11 C27.9 13.76, 26.29 17.28, 24.59 19.74 C22.89 22.2, 20.2 25.07, 17.45 25.87 C14.71 26.66, 10.83 25.67, 8.14 24.52 C5.44 23.37, 2.5 21.34, 1.29 18.96 C0.07 16.58, 0.12 12.89, 0.83 10.23 C1.55 7.57, 3.12 4.63, 5.59 3 C8.07 1.37, 13.81 0.9, 15.68 0.44 C17.55 -0.02, 16.9 0.06, 16.82 0.25 M14.59 0.18 C17.26 0.32, 20.95 2.21, 23.15 4.08 C25.35 5.95, 27.57 8.71, 27.8 11.41 C28.02 14.1, 26.25 17.96, 24.49 20.25 C22.73 22.55, 20.09 24.48, 17.24 25.16 C14.39 25.84, 9.94 25.53, 7.4 24.34 C4.87 23.14, 3.25 20.29, 2.02 17.98 C0.79 15.66, -0.51 12.93, 0.04 10.44 C0.6 7.96, 2.9 4.71, 5.38 3.05 C7.86 1.39, 13.29 1, 14.92 0.5 C16.55 0, 15.24 -0.08, 15.16 0.05" stroke="#1e1e1e" stroke-width="2" fill="none"></path></g><g transform="translate(3878.761686827189 792.8518897010008) rotate(0 36.8399658203125 12.5)"><text x="0" y="0" font-family="Virgil, Segoe UI Emoji" font-size="20px" fill="#1e1e1e" text-anchor="start" style="white-space: pre;" direction="ltr" dominant-baseline="text-before-edge">Neutral</text></g><g stroke-linecap="round"><g transform="translate(3728.0636071331614 682.7523794152788) rotate(0 6.768261301248685 0)"><path d="M0.14 -0.15 C2.33 -0.3, 10.89 -0.51, 13.2 -0.44 M-0.45 -0.7 C1.92 -0.83, 11.87 0.02, 14.25 0.04" stroke="#1e1e1e" stroke-width="2" fill="none"></path></g></g><mask></mask><g stroke-linecap="round"><g transform="translate(3809.6182633938492 684.2980883209998) rotate(0 9.205992337442012 0.13536522602498735)"><path d="M0.14 -0.3 C3.21 -0.19, 15.15 0.7, 18.23 0.78 M-0.46 0.73 C2.54 0.7, 14.56 0.07, 17.7 0.08" stroke="#1e1e1e" stroke-width="2" fill="none"></path></g></g><mask></mask><g transform="translate(482.07362884305553 798.223570349888) rotate(0 29.649978637695312 12.5)"><text x="0" y="0" font-family="Virgil, Segoe UI Emoji" font-size="20px" fill="#1e1e1e" text-anchor="start" style="white-space: pre;" direction="ltr" dominant-baseline="text-before-edge">7x7x8</text></g><g transform="translate(668.6483889587946 756.8968994833913) rotate(0 19.8599853515625 12.5)"><text x="0" y="0" font-family="Virgil, Segoe UI Emoji" font-size="20px" fill="#1e1e1e" text-anchor="start" style="white-space: pre;" direction="ltr" dominant-baseline="text-before-edge">2x2</text></g><g transform="translate(819.9895819316548 794.8235808437669) rotate(0 36.129974365234375 12.5)"><text x="0" y="0" font-family="Virgil, Segoe UI Emoji" font-size="20px" fill="#1e1e1e" text-anchor="start" style="white-space: pre;" direction="ltr" dominant-baseline="text-before-edge">8x8x10</text></g><g transform="translate(988.7123813362032 756.6953190778898) rotate(0 19.8599853515625 12.5)"><text x="0" y="0" font-family="Virgil, Segoe UI Emoji" font-size="20px" fill="#1e1e1e" text-anchor="start" style="white-space: pre;" direction="ltr" dominant-baseline="text-before-edge">2x2</text></g><g transform="translate(1114.9904105584076 849.7555852122279) rotate(0 19.67998504638672 12.5)"><text x="0" y="0" font-family="Virgil, Segoe UI Emoji" font-size="20px" fill="#1e1e1e" text-anchor="start" style="white-space: pre;" direction="ltr" dominant-baseline="text-before-edge">640</text></g><g transform="translate(1238.4432643728694 876.3971244830911) rotate(0 19.67998504638672 12.5)"><text x="0" y="0" font-family="Virgil, Segoe UI Emoji" font-size="20px" fill="#1e1e1e" text-anchor="start" style="white-space: pre;" direction="ltr" dominant-baseline="text-before-edge">640</text></g><g transform="translate(1353.8467026529659 833.8636589223269) rotate(0 13.92999267578125 12.5)"><text x="0" y="0" font-family="Virgil, Segoe UI Emoji" font-size="20px" fill="#1e1e1e" text-anchor="start" style="white-space: pre;" direction="ltr" dominant-baseline="text-before-edge">32</text></g><g transform="translate(1444.0552779841462 790.6609464152988) rotate(0 6.399993896484375 12.5)"><text x="0" y="0" font-family="Virgil, Segoe UI Emoji" font-size="20px" fill="#1e1e1e" text-anchor="start" style="white-space: pre;" direction="ltr" dominant-baseline="text-before-edge">6</text></g><g transform="translate(2098.278126683594 862.0654286415046) rotate(0 34.449981689453125 12.5)"><text x="0" y="0" font-family="Virgil, Segoe UI Emoji" font-size="20px" fill="#1e1e1e" text-anchor="start" style="white-space: pre;" direction="ltr" dominant-baseline="text-before-edge">3x3x10</text></g><g transform="translate(2465.8640277232375 794.8746478798271) rotate(0 34.449981689453125 12.5)"><text x="0" y="0" font-family="Virgil, Segoe UI Emoji" font-size="20px" fill="#1e1e1e" text-anchor="start" style="white-space: pre;" direction="ltr" dominant-baseline="text-before-edge">3x3x10</text></g><g transform="translate(2684.8436195686986 753.2852514966262) rotate(0 19.8599853515625 12.5)"><text x="0" y="0" font-family="Virgil, Segoe UI Emoji" font-size="20px" fill="#1e1e1e" text-anchor="start" style="white-space: pre;" direction="ltr" dominant-baseline="text-before-edge">2x2</text></g><g transform="translate(2863.067575419204 764.5710664659564) rotate(0 34.449981689453125 12.5)"><text x="0" y="0" font-family="Virgil, Segoe UI Emoji" font-size="20px" fill="#1e1e1e" text-anchor="start" style="white-space: pre;" direction="ltr" dominant-baseline="text-before-edge">3x3x10</text></g><g transform="translate(3025.331738631492 738.8305925528166) rotate(0 34.449981689453125 12.5)"><text x="0" y="0" font-family="Virgil, Segoe UI Emoji" font-size="20px" fill="#1e1e1e" text-anchor="start" style="white-space: pre;" direction="ltr" dominant-baseline="text-before-edge">3x3x10</text></g><g transform="translate(3406.063369848549 749.7454995760245) rotate(0 19.8599853515625 12.5)"><text x="0" y="0" font-family="Virgil, Segoe UI Emoji" font-size="20px" fill="#1e1e1e" text-anchor="start" style="white-space: pre;" direction="ltr" dominant-baseline="text-before-edge">2x2</text></g><g transform="translate(3550.816915169628 840.0992127991657) rotate(0 17.239990234375 12.5)"><text x="0" y="0" font-family="Virgil, Segoe UI Emoji" font-size="20px" fill="#1e1e1e" text-anchor="start" style="white-space: pre;" direction="ltr" dominant-baseline="text-before-edge">810</text></g><g transform="translate(3672.1445299354727 868.9520881732448) rotate(0 17.239990234375 12.5)"><text x="0" y="0" font-family="Virgil, Segoe UI Emoji" font-size="20px" fill="#1e1e1e" text-anchor="start" style="white-space: pre;" direction="ltr" dominant-baseline="text-before-edge">810</text></g><g transform="translate(3766.422341719036 830.7781348487878) rotate(0 13.059989929199219 12.5)"><text x="0" y="0" font-family="Virgil, Segoe UI Emoji" font-size="20px" fill="#1e1e1e" text-anchor="start" style="white-space: pre;" direction="ltr" dominant-baseline="text-before-edge">50</text></g><g transform="translate(3851.9058723452677 826.5261321620811) rotate(0 5.379997253417969 12.5)"><text x="0" y="0" font-family="Virgil, Segoe UI Emoji" font-size="20px" fill="#1e1e1e" text-anchor="start" style="white-space: pre;" direction="ltr" dominant-baseline="text-before-edge">7</text></g></svg>